{"accessors":[{"bufferView":0,"byteOffset":0,"componentType":5123,"count":19380,"type":"SCALAR"},{"bufferView":1,"byteOffset":0,"componentType":5126,"count":12329,"max":[2.56413197517395,3.23433470726013,1.42986357212067],"min":[-5.88800144195557,-0.79909789562225,-1.42986357212067],"type":"VEC3"},{"bufferView":2,"byteOffset":0,"componentType":5126,"count":12329,"type":"VEC3"},{"bufferView":3,"byteOffset":0,"componentType":5126,"count":12329,"type":"VEC2"},{"bufferView":4,"byteOffset":0,"componentType":5123,"count":108,"type":"SCALAR"},{"bufferView":5,"byteOffset":0,"componentType":5126,"count":52,"max":[-2.08621072769165,2.38742995262146,0.426172524690628],"min":[-3.49782133102417,0.92620861530304,-0.42616671323776],"type":"VEC3"},{"bufferView":6,"byteOffset":0,"componentType":5126,"count":52,"type":"VEC3"},{"bufferView":7,"byteOffset":0,"componentType":5126,"count":52,"type":"VEC2"}],"asset":{"generator":"FBX2glTF v0.13.1","version":"2.0"},"bufferViews":[{"buffer":0,"byteLength":38760,"byteOffset":0,"target":34963},{"buffer":0,"byteLength":147948,"byteOffset":38760,"target":34962},{"buffer":0,"byteLength":147948,"byteOffset":186708,"target":34962},{"buffer":0,"byteLength":98632,"byteOffset":334656,"target":34962},{"buffer":0,"byteLength":216,"byteOffset":433288,"target":34963},{"buffer":0,"byteLength":624,"byteOffset":433504,"target":34962},{"buffer":0,"byteLength":624,"byteOffset":434128,"target":34962},{"buffer":0,"byteLength":416,"byteOffset":434752,"target":34962}],"buffers":[{"byteLength":435168,"uri":"SM_Cart_01_B.bin"}],"images":[{"name":"Polygon_Texture_vol2","uri":"../Textures/Polygon_Texture_vol2.png"},{"name":"Polygon_Camping_Texture_vol2.0","uri":"Polygon_Camping_Texture_vol2.0.jpg"}],"materials":[{"alphaMode":"OPAQUE","doubleSided":false,"extras":{"fromFBX":{"isTruePBR":false,"shadingModel":"Phong"}},"name":"Material","pbrMetallicRoughness":{"baseColorFactor":[1,1,1,1],"baseColorTexture":{"index":0,"texCoord":0},"metallicFactor":0.400000005960464,"roughnessFactor":0.272165536880493}},{"alphaMode":"OPAQUE","doubleSided":false,"extras":{"fromFBX":{"isTruePBR":false,"shadingModel":"Phong"}},"name":"Glass","pbrMetallicRoughness":{"baseColorFactor":[1,1,1,1],"baseColorTexture":{"index":1,"texCoord":0},"metallicFactor":0.400000005960464,"roughnessFactor":0.272165536880493}}],"meshes":[{"name":"SM_Cart_01_B","primitives":[{"attributes":{"NORMAL":2,"POSITION":1,"TEXCOORD_0":3},"indices":0,"material":0,"mode":4},{"attributes":{"NORMAL":6,"POSITION":5,"TEXCOORD_0":7},"indices":4,"material":1,"mode":4}]}],"nodes":[{"mesh":0,"name":"SM_Cart_01_B","rotation":[0,0,0,1],"scale":[1,1,1],"translation":[127.794792175293,0.799097895622253,-49.0917816162109]}],"samplers":[{}],"scene":0,"scenes":[{"name":"Root Scene","nodes":[0]}],"textures":[{"name":"base_color_texture","sampler":0,"source":0},{"name":"base_color_texture","sampler":0,"source":1}]}