{"accessors":[{"bufferView":0,"byteOffset":0,"componentType":5123,"count":1212,"type":"SCALAR"},{"bufferView":1,"byteOffset":0,"componentType":5126,"count":744,"max":[0.63639771938324,1.81129324436188,0.248666554689407],"min":[-0.63471484184265,0,-0.97904896736145],"type":"VEC3"},{"bufferView":2,"byteOffset":0,"componentType":5126,"count":744,"type":"VEC3"},{"bufferView":3,"byteOffset":0,"componentType":5126,"count":744,"type":"VEC2"}],"asset":{"generator":"FBX2glTF v0.13.1","version":"2.0"},"bufferViews":[{"buffer":0,"byteLength":2424,"byteOffset":0,"target":34963},{"buffer":0,"byteLength":8928,"byteOffset":2424,"target":34962},{"buffer":0,"byteLength":8928,"byteOffset":11352,"target":34962},{"buffer":0,"byteLength":5952,"byteOffset":20280,"target":34962}],"buffers":[{"byteLength":26232,"uri":"SM_Cockshot_01_B.bin"}],"images":[{"name":"Polygon_Texture_vol2","uri":"../Textures/Polygon_Texture_vol2.png"}],"materials":[{"alphaMode":"OPAQUE","doubleSided":false,"extras":{"fromFBX":{"isTruePBR":false,"shadingModel":"Phong"}},"name":"Material","pbrMetallicRoughness":{"baseColorFactor":[1,1,1,1],"baseColorTexture":{"index":0,"texCoord":0},"metallicFactor":0.400000005960464,"roughnessFactor":0.272165536880493}}],"meshes":[{"name":"SM_Cockshot_01_B","primitives":[{"attributes":{"NORMAL":2,"POSITION":1,"TEXCOORD_0":3},"indices":0,"material":0,"mode":4}]}],"nodes":[{"mesh":0,"name":"SM_Cockshot_01_B","rotation":[0,0,0,1],"scale":[1,1,1],"translation":[140.807281494141,0,-49.0917816162109]}],"samplers":[{}],"scene":0,"scenes":[{"name":"Root Scene","nodes":[0]}],"textures":[{"name":"base_color_texture","sampler":0,"source":0}]}