{"accessors":[{"bufferView":0,"byteOffset":0,"componentType":5123,"count":2598,"type":"SCALAR"},{"bufferView":1,"byteOffset":0,"componentType":5126,"count":1704,"max":[0.879180908203125,2.53747010231018,0.306071102619171],"min":[-0.78748601675034,0,-0.28821179270744],"type":"VEC3"},{"bufferView":2,"byteOffset":0,"componentType":5126,"count":1704,"type":"VEC3"},{"bufferView":3,"byteOffset":0,"componentType":5126,"count":1704,"type":"VEC2"}],"asset":{"generator":"FBX2glTF v0.13.1","version":"2.0"},"bufferViews":[{"buffer":0,"byteLength":5196,"byteOffset":0,"target":34963},{"buffer":0,"byteLength":20448,"byteOffset":5196,"target":34962},{"buffer":0,"byteLength":20448,"byteOffset":25644,"target":34962},{"buffer":0,"byteLength":13632,"byteOffset":46092,"target":34962}],"buffers":[{"byteLength":59724,"uri":"SM_Dummy_01_A.bin"}],"images":[{"name":"Polygon_Texture_vol2","uri":"../Textures/Polygon_Texture_vol2.png"}],"materials":[{"alphaMode":"OPAQUE","doubleSided":false,"extras":{"fromFBX":{"isTruePBR":false,"shadingModel":"Phong"}},"name":"Material","pbrMetallicRoughness":{"baseColorFactor":[1,1,1,1],"baseColorTexture":{"index":0,"texCoord":0},"metallicFactor":0.400000005960464,"roughnessFactor":0.272165536880493}}],"meshes":[{"name":"SM_Dummy_01_A","primitives":[{"attributes":{"NORMAL":2,"POSITION":1,"TEXCOORD_0":3},"indices":0,"material":0,"mode":4}]}],"nodes":[{"mesh":0,"name":"SM_Dummy_01_A","rotation":[0,0,0,1],"scale":[1,1,1],"translation":[133.856201171875,0,0]}],"samplers":[{}],"scene":0,"scenes":[{"name":"Root Scene","nodes":[0]}],"textures":[{"name":"base_color_texture","sampler":0,"source":0}]}