{"accessors":[{"bufferView":0,"byteOffset":0,"componentType":5123,"count":792,"type":"SCALAR"},{"bufferView":1,"byteOffset":0,"componentType":5126,"count":508,"max":[2.47700786590576,1.13539946079254,0.0770079419016838],"min":[-2.47700786590576,0,-0.07700794190168],"type":"VEC3"},{"bufferView":2,"byteOffset":0,"componentType":5126,"count":508,"type":"VEC3"},{"bufferView":3,"byteOffset":0,"componentType":5126,"count":508,"type":"VEC2"}],"asset":{"generator":"FBX2glTF v0.13.1","version":"2.0"},"bufferViews":[{"buffer":0,"byteLength":1584,"byteOffset":0,"target":34963},{"buffer":0,"byteLength":6096,"byteOffset":1584,"target":34962},{"buffer":0,"byteLength":6096,"byteOffset":7680,"target":34962},{"buffer":0,"byteLength":4064,"byteOffset":13776,"target":34962}],"buffers":[{"byteLength":17840,"uri":"SM_Fence_01_A.bin"}],"images":[{"name":"Polygon_Texture_vol2","uri":"../Textures/Polygon_Texture_vol2.png"}],"materials":[{"alphaMode":"OPAQUE","doubleSided":false,"extras":{"fromFBX":{"isTruePBR":false,"shadingModel":"Phong"}},"name":"Material","pbrMetallicRoughness":{"baseColorFactor":[1,1,1,1],"baseColorTexture":{"index":0,"texCoord":0},"metallicFactor":0.400000005960464,"roughnessFactor":0.272165536880493}}],"meshes":[{"name":"SM_Fence_01_A","primitives":[{"attributes":{"NORMAL":2,"POSITION":1,"TEXCOORD_0":3},"indices":0,"material":0,"mode":4}]}],"nodes":[{"mesh":0,"name":"SM_Fence_01_A","rotation":[0,0,0,1],"scale":[1,1,1],"translation":[137.339904785156,0,0]}],"samplers":[{}],"scene":0,"scenes":[{"name":"Root Scene","nodes":[0]}],"textures":[{"name":"base_color_texture","sampler":0,"source":0}]}