{"accessors":[{"bufferView":0,"byteOffset":0,"componentType":5123,"count":26418,"type":"SCALAR"},{"bufferView":1,"byteOffset":0,"componentType":5126,"count":17184,"max":[3.66137194633484,4.58285617828369,3.66137194633484],"min":[-3.66137170791626,0,-3.66137194633484],"type":"VEC3"},{"bufferView":2,"byteOffset":0,"componentType":5126,"count":17184,"type":"VEC3"},{"bufferView":3,"byteOffset":0,"componentType":5126,"count":17184,"type":"VEC2"}],"asset":{"generator":"FBX2glTF v0.13.1","version":"2.0"},"bufferViews":[{"buffer":0,"byteLength":52836,"byteOffset":0,"target":34963},{"buffer":0,"byteLength":206208,"byteOffset":52836,"target":34962},{"buffer":0,"byteLength":206208,"byteOffset":259044,"target":34962},{"buffer":0,"byteLength":137472,"byteOffset":465252,"target":34962}],"buffers":[{"byteLength":602724,"uri":"SM_hous_07_A.bin"}],"images":[{"name":"Polygon_Texture_vol2","uri":"../Textures/Polygon_Texture_vol2.png"}],"materials":[{"alphaMode":"OPAQUE","doubleSided":false,"extras":{"fromFBX":{"isTruePBR":false,"shadingModel":"Phong"}},"name":"Material","pbrMetallicRoughness":{"baseColorFactor":[1,1,1,1],"baseColorTexture":{"index":0,"texCoord":0},"metallicFactor":0.400000005960464,"roughnessFactor":0.272165536880493}}],"meshes":[{"name":"SM_hous_07_A","primitives":[{"attributes":{"NORMAL":2,"POSITION":1,"TEXCOORD_0":3},"indices":0,"material":0,"mode":4}]}],"nodes":[{"mesh":0,"name":"SM_hous_07_A","rotation":[0,0,0,1],"scale":[1,1,1],"translation":[350.891235351562,0,-0.30945014953613]}],"samplers":[{}],"scene":0,"scenes":[{"name":"Root Scene","nodes":[0]}],"textures":[{"name":"base_color_texture","sampler":0,"source":0}]}