{"accessors":[{"bufferView":0,"byteOffset":0,"componentType":5123,"count":5706,"type":"SCALAR"},{"bufferView":1,"byteOffset":0,"componentType":5126,"count":3457,"max":[3.61098194122314,12.3413648605347,6.38377809524536],"min":[-3.55629634857178,-0.00000025021356,-6.21438694000244],"type":"VEC3"},{"bufferView":2,"byteOffset":0,"componentType":5126,"count":3457,"type":"VEC3"},{"bufferView":3,"byteOffset":0,"componentType":5126,"count":3457,"type":"VEC2"}],"asset":{"generator":"FBX2glTF v0.13.1","version":"2.0"},"bufferViews":[{"buffer":0,"byteLength":11412,"byteOffset":0,"target":34963},{"buffer":0,"byteLength":41484,"byteOffset":11412,"target":34962},{"buffer":0,"byteLength":41484,"byteOffset":52896,"target":34962},{"buffer":0,"byteLength":27656,"byteOffset":94380,"target":34962}],"buffers":[{"byteLength":122036,"uri":"SM_Hous_26_A.bin"}],"images":[{"name":"Polygon_Texture_vol2","uri":"../Textures/Polygon_Texture_vol2.png"}],"materials":[{"alphaMode":"OPAQUE","doubleSided":false,"extras":{"fromFBX":{"isTruePBR":false,"shadingModel":"Phong"}},"name":"Material","pbrMetallicRoughness":{"baseColorFactor":[1,1,1,1],"baseColorTexture":{"index":0,"texCoord":0},"metallicFactor":0.400000005960464,"roughnessFactor":0.272165536880493}}],"meshes":[{"name":"SM_Hous_26_A","primitives":[{"attributes":{"NORMAL":2,"POSITION":1,"TEXCOORD_0":3},"indices":0,"material":0,"mode":4}]}],"nodes":[{"mesh":0,"name":"SM_Hous_26_A","rotation":[0,0,0,1],"scale":[1,1,1],"translation":[46.3962936401367,0.000000125106780046735,-5.11555910110474]}],"samplers":[{}],"scene":0,"scenes":[{"name":"Root Scene","nodes":[0]}],"textures":[{"name":"base_color_texture","sampler":0,"source":0}]}