{"accessors":[{"bufferView":0,"byteOffset":0,"componentType":5123,"count":23070,"type":"SCALAR"},{"bufferView":1,"byteOffset":0,"componentType":5126,"count":14879,"max":[2.88971829414368,20.2104206085205,5.10276985168457],"min":[-2.92689561843872,0,-2.8746190071106],"type":"VEC3"},{"bufferView":2,"byteOffset":0,"componentType":5126,"count":14879,"type":"VEC3"},{"bufferView":3,"byteOffset":0,"componentType":5126,"count":14879,"type":"VEC2"},{"bufferView":4,"byteOffset":0,"componentType":5123,"count":168,"type":"SCALAR"},{"bufferView":5,"byteOffset":0,"componentType":5126,"count":72,"max":[1.84437525272369,12.8095149993896,1.75491690635681],"min":[-1.92669367790222,2.1642107963562,-1.75491666793823],"type":"VEC3"},{"bufferView":6,"byteOffset":0,"componentType":5126,"count":72,"type":"VEC3"},{"bufferView":7,"byteOffset":0,"componentType":5126,"count":72,"type":"VEC2"},{"bufferView":8,"byteOffset":0,"componentType":5123,"count":1452,"type":"SCALAR"},{"bufferView":9,"byteOffset":0,"componentType":5126,"count":944,"max":[0.863763034343719,13.1752328872681,-1.66903209686279],"min":[-0.78941482305527,11.5183076858521,-1.91018319129944],"type":"VEC3"},{"bufferView":10,"byteOffset":0,"componentType":5126,"count":944,"type":"VEC3"},{"bufferView":11,"byteOffset":0,"componentType":5126,"count":944,"type":"VEC2"},{"bufferView":12,"byteOffset":0,"componentType":5123,"count":1452,"type":"SCALAR"},{"bufferView":13,"byteOffset":0,"componentType":5126,"count":944,"max":[0.863761246204376,13.1752328872681,1.89441585540771],"min":[-0.78941649198532,11.5183076858521,1.6532644033432],"type":"VEC3"},{"bufferView":14,"byteOffset":0,"componentType":5126,"count":944,"type":"VEC3"},{"bufferView":15,"byteOffset":0,"componentType":5126,"count":944,"type":"VEC2"}],"asset":{"generator":"FBX2glTF v0.13.1","version":"2.0"},"bufferViews":[{"buffer":0,"byteLength":46140,"byteOffset":0,"target":34963},{"buffer":0,"byteLength":178548,"byteOffset":46140,"target":34962},{"buffer":0,"byteLength":178548,"byteOffset":224688,"target":34962},{"buffer":0,"byteLength":119032,"byteOffset":403236,"target":34962},{"buffer":0,"byteLength":336,"byteOffset":522268,"target":34963},{"buffer":0,"byteLength":864,"byteOffset":522604,"target":34962},{"buffer":0,"byteLength":864,"byteOffset":523468,"target":34962},{"buffer":0,"byteLength":576,"byteOffset":524332,"target":34962},{"buffer":0,"byteLength":2904,"byteOffset":524908,"target":34963},{"buffer":0,"byteLength":11328,"byteOffset":527812,"target":34962},{"buffer":0,"byteLength":11328,"byteOffset":539140,"target":34962},{"buffer":0,"byteLength":7552,"byteOffset":550468,"target":34962},{"buffer":0,"byteLength":2904,"byteOffset":558020,"target":34963},{"buffer":0,"byteLength":11328,"byteOffset":560924,"target":34962},{"buffer":0,"byteLength":11328,"byteOffset":572252,"target":34962},{"buffer":0,"byteLength":7552,"byteOffset":583580,"target":34962}],"buffers":[{"byteLength":591132,"uri":"SM_Hous_25_B.bin"}],"images":[{"name":"Polygon_Texture_vol2","uri":"../Textures/Polygon_Texture_vol2.png"},{"name":"Polygon_Camping_Texture_vol2.0","uri":"Polygon_Camping_Texture_vol2.0.jpg"}],"materials":[{"alphaMode":"OPAQUE","doubleSided":false,"extras":{"fromFBX":{"isTruePBR":false,"shadingModel":"Phong"}},"name":"Material","pbrMetallicRoughness":{"baseColorFactor":[1,1,1,1],"baseColorTexture":{"index":0,"texCoord":0},"metallicFactor":0.400000005960464,"roughnessFactor":0.272165536880493}},{"alphaMode":"OPAQUE","doubleSided":false,"extras":{"fromFBX":{"isTruePBR":false,"shadingModel":"Phong"}},"name":"Glass","pbrMetallicRoughness":{"baseColorFactor":[1,1,1,1],"baseColorTexture":{"index":1,"texCoord":0},"metallicFactor":0.400000005960464,"roughnessFactor":0.272165536880493}},{"alphaMode":"OPAQUE","doubleSided":false,"extras":{"fromFBX":{"isTruePBR":false,"shadingModel":"Phong"}},"name":"Material.005","pbrMetallicRoughness":{"baseColorFactor":[1,1,1,1],"baseColorTexture":{"index":0,"texCoord":0},"metallicFactor":0.400000005960464,"roughnessFactor":0.272165536880493}},{"alphaMode":"OPAQUE","doubleSided":false,"extras":{"fromFBX":{"isTruePBR":false,"shadingModel":"Phong"}},"name":"Material.004","pbrMetallicRoughness":{"baseColorFactor":[1,1,1,1],"baseColorTexture":{"index":0,"texCoord":0},"metallicFactor":0.400000005960464,"roughnessFactor":0.272165536880493}}],"meshes":[{"name":"SM_Hous_25_B","primitives":[{"attributes":{"NORMAL":2,"POSITION":1,"TEXCOORD_0":3},"indices":0,"material":0,"mode":4},{"attributes":{"NORMAL":6,"POSITION":5,"TEXCOORD_0":7},"indices":4,"material":1,"mode":4},{"attributes":{"NORMAL":10,"POSITION":9,"TEXCOORD_0":11},"indices":8,"material":2,"mode":4},{"attributes":{"NORMAL":14,"POSITION":13,"TEXCOORD_0":15},"indices":12,"material":3,"mode":4}]}],"nodes":[{"mesh":0,"name":"SM_Hous_25_B","rotation":[0,0,0,1],"scale":[1,1,1],"translation":[146.528427124023,0,-50.5549392700195]}],"samplers":[{}],"scene":0,"scenes":[{"name":"Root Scene","nodes":[0]}],"textures":[{"name":"base_color_texture","sampler":0,"source":0},{"name":"base_color_texture","sampler":0,"source":1}]}