{"accessors":[{"bufferView":0,"byteOffset":0,"componentType":5123,"count":18846,"type":"SCALAR"},{"bufferView":1,"byteOffset":0,"componentType":5126,"count":12418,"max":[3.93216228485107,8.49955463409424,5.06662464141846],"min":[-4.06018257141113,-0.01158437132835,-5.76524448394775],"type":"VEC3"},{"bufferView":2,"byteOffset":0,"componentType":5126,"count":12418,"type":"VEC3"},{"bufferView":3,"byteOffset":0,"componentType":5126,"count":12418,"type":"VEC2"},{"bufferView":4,"byteOffset":0,"componentType":5123,"count":126,"type":"SCALAR"},{"bufferView":5,"byteOffset":0,"componentType":5126,"count":56,"max":[2.85130953788757,3.88816833496094,2.94443249702454],"min":[-2.97952651977539,2.1971116065979,-4.83867454528809],"type":"VEC3"},{"bufferView":6,"byteOffset":0,"componentType":5126,"count":56,"type":"VEC3"},{"bufferView":7,"byteOffset":0,"componentType":5126,"count":56,"type":"VEC2"}],"asset":{"generator":"FBX2glTF v0.13.1","version":"2.0"},"bufferViews":[{"buffer":0,"byteLength":37692,"byteOffset":0,"target":34963},{"buffer":0,"byteLength":149016,"byteOffset":37692,"target":34962},{"buffer":0,"byteLength":149016,"byteOffset":186708,"target":34962},{"buffer":0,"byteLength":99344,"byteOffset":335724,"target":34962},{"buffer":0,"byteLength":252,"byteOffset":435068,"target":34963},{"buffer":0,"byteLength":672,"byteOffset":435320,"target":34962},{"buffer":0,"byteLength":672,"byteOffset":435992,"target":34962},{"buffer":0,"byteLength":448,"byteOffset":436664,"target":34962}],"buffers":[{"byteLength":437112,"uri":"SM_Hous_16_A.bin"}],"images":[{"name":"Polygon_Texture_vol2","uri":"../Textures/Polygon_Texture_vol2.png"},{"name":"Polygon_Camping_Texture_vol2.0","uri":"Polygon_Camping_Texture_vol2.0.jpg"}],"materials":[{"alphaMode":"OPAQUE","doubleSided":false,"extras":{"fromFBX":{"isTruePBR":false,"shadingModel":"Phong"}},"name":"Material","pbrMetallicRoughness":{"baseColorFactor":[1,1,1,1],"baseColorTexture":{"index":0,"texCoord":0},"metallicFactor":0.400000005960464,"roughnessFactor":0.272165536880493}},{"alphaMode":"OPAQUE","doubleSided":false,"extras":{"fromFBX":{"isTruePBR":false,"shadingModel":"Phong"}},"name":"Glass","pbrMetallicRoughness":{"baseColorFactor":[1,1,1,1],"baseColorTexture":{"index":1,"texCoord":0},"metallicFactor":0.400000005960464,"roughnessFactor":0.272165536880493}}],"meshes":[{"name":"SM_Hous_16_A","primitives":[{"attributes":{"NORMAL":2,"POSITION":1,"TEXCOORD_0":3},"indices":0,"material":0,"mode":4},{"attributes":{"NORMAL":6,"POSITION":5,"TEXCOORD_0":7},"indices":4,"material":1,"mode":4}]}],"nodes":[{"mesh":0,"name":"SM_Hous_16_A","rotation":[0,0,0,1],"scale":[1,1,1],"translation":[265.495788574219,0,0.0984216257929802]}],"samplers":[{}],"scene":0,"scenes":[{"name":"Root Scene","nodes":[0]}],"textures":[{"name":"base_color_texture","sampler":0,"source":0},{"name":"base_color_texture","sampler":0,"source":1}]}