{"accessors":[{"bufferView":0,"byteOffset":0,"componentType":5123,"count":4398,"type":"SCALAR"},{"bufferView":1,"byteOffset":0,"componentType":5126,"count":2808,"max":[9.44593238830566,11.8114767074585,2.93004751205444],"min":[-9.44593238830566,0,-2.93004608154297],"type":"VEC3"},{"bufferView":2,"byteOffset":0,"componentType":5126,"count":2808,"type":"VEC3"},{"bufferView":3,"byteOffset":0,"componentType":5126,"count":2808,"type":"VEC2"}],"asset":{"generator":"FBX2glTF v0.13.1","version":"2.0"},"bufferViews":[{"buffer":0,"byteLength":8796,"byteOffset":0,"target":34963},{"buffer":0,"byteLength":33696,"byteOffset":8796,"target":34962},{"buffer":0,"byteLength":33696,"byteOffset":42492,"target":34962},{"buffer":0,"byteLength":22464,"byteOffset":76188,"target":34962}],"buffers":[{"byteLength":98652,"uri":"SM_Hous_27_A.bin"}],"images":[{"name":"Polygon_Texture_vol2","uri":"../Textures/Polygon_Texture_vol2.png"}],"materials":[{"alphaMode":"OPAQUE","doubleSided":false,"extras":{"fromFBX":{"isTruePBR":false,"shadingModel":"Phong"}},"name":"Material","pbrMetallicRoughness":{"baseColorFactor":[1,1,1,1],"baseColorTexture":{"index":0,"texCoord":0},"metallicFactor":0.400000005960464,"roughnessFactor":0.272165536880493}}],"meshes":[{"name":"SM_Hous_27_A","primitives":[{"attributes":{"NORMAL":2,"POSITION":1,"TEXCOORD_0":3},"indices":0,"material":0,"mode":4}]}],"nodes":[{"mesh":0,"name":"SM_Hous_27_A","rotation":[0,0,0,1],"scale":[1,1,1],"translation":[43.2034912109375,0.0999999940395355,-23.4810886383057]}],"samplers":[{}],"scene":0,"scenes":[{"name":"Root Scene","nodes":[0]}],"textures":[{"name":"base_color_texture","sampler":0,"source":0}]}