{"accessors":[{"bufferView":0,"byteOffset":0,"componentType":5123,"count":35856,"type":"SCALAR"},{"bufferView":1,"byteOffset":0,"componentType":5126,"count":22672,"max":[6.42088842391968,12.7064800262451,6.35594463348389],"min":[-6.77353429794312,-0.00000062315542,-6.35913324356079],"type":"VEC3"},{"bufferView":2,"byteOffset":0,"componentType":5126,"count":22672,"type":"VEC3"},{"bufferView":3,"byteOffset":0,"componentType":5126,"count":22672,"type":"VEC2"},{"bufferView":4,"byteOffset":0,"componentType":5123,"count":150,"type":"SCALAR"},{"bufferView":5,"byteOffset":0,"componentType":5126,"count":100,"max":[5.53472089767456,5.49603080749512,5.54843235015869],"min":[-5.07775545120239,1.39654290676117,-5.04766082763672],"type":"VEC3"},{"bufferView":6,"byteOffset":0,"componentType":5126,"count":100,"type":"VEC3"},{"bufferView":7,"byteOffset":0,"componentType":5126,"count":100,"type":"VEC2"}],"asset":{"generator":"FBX2glTF v0.13.1","version":"2.0"},"bufferViews":[{"buffer":0,"byteLength":71712,"byteOffset":0,"target":34963},{"buffer":0,"byteLength":272064,"byteOffset":71712,"target":34962},{"buffer":0,"byteLength":272064,"byteOffset":343776,"target":34962},{"buffer":0,"byteLength":181376,"byteOffset":615840,"target":34962},{"buffer":0,"byteLength":300,"byteOffset":797216,"target":34963},{"buffer":0,"byteLength":1200,"byteOffset":797516,"target":34962},{"buffer":0,"byteLength":1200,"byteOffset":798716,"target":34962},{"buffer":0,"byteLength":800,"byteOffset":799916,"target":34962}],"buffers":[{"byteLength":800716,"uri":"SM_Hous_19_A.bin"}],"images":[{"name":"Polygon_Texture_vol2","uri":"../Textures/Polygon_Texture_vol2.png"},{"name":"Polygon_Camping_Texture_vol2.0","uri":"Polygon_Camping_Texture_vol2.0.jpg"}],"materials":[{"alphaMode":"OPAQUE","doubleSided":false,"extras":{"fromFBX":{"isTruePBR":false,"shadingModel":"Phong"}},"name":"Material","pbrMetallicRoughness":{"baseColorFactor":[1,1,1,1],"baseColorTexture":{"index":0,"texCoord":0},"metallicFactor":0.400000005960464,"roughnessFactor":0.272165536880493}},{"alphaMode":"OPAQUE","doubleSided":false,"extras":{"fromFBX":{"isTruePBR":false,"shadingModel":"Phong"}},"name":"Glass","pbrMetallicRoughness":{"baseColorFactor":[1,1,1,1],"baseColorTexture":{"index":1,"texCoord":0},"metallicFactor":0.400000005960464,"roughnessFactor":0.272165536880493}}],"meshes":[{"name":"SM_Hous_19_A","primitives":[{"attributes":{"NORMAL":2,"POSITION":1,"TEXCOORD_0":3},"indices":0,"material":0,"mode":4},{"attributes":{"NORMAL":6,"POSITION":5,"TEXCOORD_0":7},"indices":4,"material":1,"mode":4}]}],"nodes":[{"mesh":0,"name":"SM_Hous_19_A","rotation":[0,0,0,1],"scale":[1,1,1],"translation":[235.971145629883,0,-0.19136047363281]}],"samplers":[{}],"scene":0,"scenes":[{"name":"Root Scene","nodes":[0]}],"textures":[{"name":"base_color_texture","sampler":0,"source":0},{"name":"base_color_texture","sampler":0,"source":1}]}