{"accessors":[{"bufferView":0,"byteOffset":0,"componentType":5123,"count":17796,"type":"SCALAR"},{"bufferView":1,"byteOffset":0,"componentType":5126,"count":10963,"max":[4.6649284362793,7.60191631317139,5.07817649841309],"min":[-4.66424131393433,-0.07131090760231,-5.07468318939209],"type":"VEC3"},{"bufferView":2,"byteOffset":0,"componentType":5126,"count":10963,"type":"VEC3"},{"bufferView":3,"byteOffset":0,"componentType":5126,"count":10963,"type":"VEC2"}],"asset":{"generator":"FBX2glTF v0.13.1","version":"2.0"},"bufferViews":[{"buffer":0,"byteLength":35592,"byteOffset":0,"target":34963},{"buffer":0,"byteLength":131556,"byteOffset":35592,"target":34962},{"buffer":0,"byteLength":131556,"byteOffset":167148,"target":34962},{"buffer":0,"byteLength":87704,"byteOffset":298704,"target":34962}],"buffers":[{"byteLength":386408,"uri":"SM_hous_06_B.bin"}],"images":[{"name":"Polygon_Texture_vol2","uri":"../Textures/Polygon_Texture_vol2.png"}],"materials":[{"alphaMode":"OPAQUE","doubleSided":false,"extras":{"fromFBX":{"isTruePBR":false,"shadingModel":"Phong"}},"name":"Material","pbrMetallicRoughness":{"baseColorFactor":[1,1,1,1],"baseColorTexture":{"index":0,"texCoord":0},"metallicFactor":0.400000005960464,"roughnessFactor":0.272165536880493}}],"meshes":[{"name":"SM_hous_06_B","primitives":[{"attributes":{"NORMAL":2,"POSITION":1,"TEXCOORD_0":3},"indices":0,"material":0,"mode":4}]}],"nodes":[{"mesh":0,"name":"SM_hous_06_B","rotation":[0,0,0,1],"scale":[1,1,1],"translation":[359.968505859375,0,-58.422191619873]}],"samplers":[{}],"scene":0,"scenes":[{"name":"Root Scene","nodes":[0]}],"textures":[{"name":"base_color_texture","sampler":0,"source":0}]}