{"accessors":[{"bufferView":0,"byteOffset":0,"componentType":5123,"count":17919,"type":"SCALAR"},{"bufferView":1,"byteOffset":0,"componentType":5126,"count":11645,"max":[4.30789613723755,4.5730128288269,2.99811553955078],"min":[-4.38724803924561,-0.03910915181041,-2.99811577796936],"type":"VEC3"},{"bufferView":2,"byteOffset":0,"componentType":5126,"count":11645,"type":"VEC3"},{"bufferView":3,"byteOffset":0,"componentType":5126,"count":11645,"type":"VEC2"},{"bufferView":4,"byteOffset":0,"componentType":5123,"count":129,"type":"SCALAR"},{"bufferView":5,"byteOffset":0,"componentType":5126,"count":63,"max":[3.31108903884888,4.05966377258301,2.22795510292053],"min":[-3.31108903884888,0.805601179599762,-2.22795391082764],"type":"VEC3"},{"bufferView":6,"byteOffset":0,"componentType":5126,"count":63,"type":"VEC3"},{"bufferView":7,"byteOffset":0,"componentType":5126,"count":63,"type":"VEC2"}],"asset":{"generator":"FBX2glTF v0.13.1","version":"2.0"},"bufferViews":[{"buffer":0,"byteLength":35838,"byteOffset":0,"target":34963},{"buffer":0,"byteLength":139740,"byteOffset":35840,"target":34962},{"buffer":0,"byteLength":139740,"byteOffset":175580,"target":34962},{"buffer":0,"byteLength":93160,"byteOffset":315320,"target":34962},{"buffer":0,"byteLength":258,"byteOffset":408480,"target":34963},{"buffer":0,"byteLength":756,"byteOffset":408740,"target":34962},{"buffer":0,"byteLength":756,"byteOffset":409496,"target":34962},{"buffer":0,"byteLength":504,"byteOffset":410252,"target":34962}],"buffers":[{"byteLength":410756,"uri":"SM_hous_02_B.bin"}],"images":[{"name":"Polygon_Texture_vol2","uri":"../Textures/Polygon_Texture_vol2.png"},{"name":"Polygon_Camping_Texture_vol2.0","uri":"Polygon_Camping_Texture_vol2.0.jpg"}],"materials":[{"alphaMode":"OPAQUE","doubleSided":false,"extras":{"fromFBX":{"isTruePBR":false,"shadingModel":"Phong"}},"name":"Material","pbrMetallicRoughness":{"baseColorFactor":[1,1,1,1],"baseColorTexture":{"index":0,"texCoord":0},"metallicFactor":0.400000005960464,"roughnessFactor":0.272165536880493}},{"alphaMode":"OPAQUE","doubleSided":false,"extras":{"fromFBX":{"isTruePBR":false,"shadingModel":"Phong"}},"name":"Glass","pbrMetallicRoughness":{"baseColorFactor":[1,1,1,1],"baseColorTexture":{"index":1,"texCoord":0},"metallicFactor":0.400000005960464,"roughnessFactor":0.272165536880493}}],"meshes":[{"name":"SM_hous_02_B","primitives":[{"attributes":{"NORMAL":2,"POSITION":1,"TEXCOORD_0":3},"indices":0,"material":0,"mode":4},{"attributes":{"NORMAL":6,"POSITION":5,"TEXCOORD_0":7},"indices":4,"material":1,"mode":4}]}],"nodes":[{"mesh":0,"name":"SM_hous_02_B","rotation":[0,0,0,1],"scale":[1,1,1],"translation":[404.298461914062,0,-58.6414337158203]}],"samplers":[{}],"scene":0,"scenes":[{"name":"Root Scene","nodes":[0]}],"textures":[{"name":"base_color_texture","sampler":0,"source":0},{"name":"base_color_texture","sampler":0,"source":1}]}