{"accessors":[{"bufferView":0,"byteOffset":0,"componentType":5123,"count":24522,"type":"SCALAR"},{"bufferView":1,"byteOffset":0,"componentType":5126,"count":15823,"max":[2.88971829414368,20.2104206085205,5.10276985168457],"min":[-2.92689561843872,0,-2.8746190071106],"type":"VEC3"},{"bufferView":2,"byteOffset":0,"componentType":5126,"count":15823,"type":"VEC3"},{"bufferView":3,"byteOffset":0,"componentType":5126,"count":15823,"type":"VEC2"},{"bufferView":4,"byteOffset":0,"componentType":5123,"count":168,"type":"SCALAR"},{"bufferView":5,"byteOffset":0,"componentType":5126,"count":72,"max":[1.84437525272369,12.8095149993896,1.75491690635681],"min":[-1.92669367790222,2.1642107963562,-1.75491666793823],"type":"VEC3"},{"bufferView":6,"byteOffset":0,"componentType":5126,"count":72,"type":"VEC3"},{"bufferView":7,"byteOffset":0,"componentType":5126,"count":72,"type":"VEC2"},{"bufferView":8,"byteOffset":0,"componentType":5123,"count":1452,"type":"SCALAR"},{"bufferView":9,"byteOffset":0,"componentType":5126,"count":944,"max":[0.800279974937439,13.1150140762329,-1.68110024929047],"min":[-0.85289776325226,11.4580888748169,-1.92225170135498],"type":"VEC3"},{"bufferView":10,"byteOffset":0,"componentType":5126,"count":944,"type":"VEC3"},{"bufferView":11,"byteOffset":0,"componentType":5126,"count":944,"type":"VEC2"}],"asset":{"generator":"FBX2glTF v0.13.1","version":"2.0"},"bufferViews":[{"buffer":0,"byteLength":49044,"byteOffset":0,"target":34963},{"buffer":0,"byteLength":189876,"byteOffset":49044,"target":34962},{"buffer":0,"byteLength":189876,"byteOffset":238920,"target":34962},{"buffer":0,"byteLength":126584,"byteOffset":428796,"target":34962},{"buffer":0,"byteLength":336,"byteOffset":555380,"target":34963},{"buffer":0,"byteLength":864,"byteOffset":555716,"target":34962},{"buffer":0,"byteLength":864,"byteOffset":556580,"target":34962},{"buffer":0,"byteLength":576,"byteOffset":557444,"target":34962},{"buffer":0,"byteLength":2904,"byteOffset":558020,"target":34963},{"buffer":0,"byteLength":11328,"byteOffset":560924,"target":34962},{"buffer":0,"byteLength":11328,"byteOffset":572252,"target":34962},{"buffer":0,"byteLength":7552,"byteOffset":583580,"target":34962}],"buffers":[{"byteLength":591132,"uri":"SM_Hous_25_A.bin"}],"images":[{"name":"Polygon_Texture_vol2","uri":"../Textures/Polygon_Texture_vol2.png"},{"name":"Polygon_Camping_Texture_vol2.0","uri":"Polygon_Camping_Texture_vol2.0.jpg"}],"materials":[{"alphaMode":"OPAQUE","doubleSided":false,"extras":{"fromFBX":{"isTruePBR":false,"shadingModel":"Phong"}},"name":"Material","pbrMetallicRoughness":{"baseColorFactor":[1,1,1,1],"baseColorTexture":{"index":0,"texCoord":0},"metallicFactor":0.400000005960464,"roughnessFactor":0.272165536880493}},{"alphaMode":"OPAQUE","doubleSided":false,"extras":{"fromFBX":{"isTruePBR":false,"shadingModel":"Phong"}},"name":"Glass","pbrMetallicRoughness":{"baseColorFactor":[1,1,1,1],"baseColorTexture":{"index":1,"texCoord":0},"metallicFactor":0.400000005960464,"roughnessFactor":0.272165536880493}},{"alphaMode":"OPAQUE","doubleSided":false,"extras":{"fromFBX":{"isTruePBR":false,"shadingModel":"Phong"}},"name":"Material.001","pbrMetallicRoughness":{"baseColorFactor":[1,1,1,1],"baseColorTexture":{"index":0,"texCoord":0},"metallicFactor":0.400000005960464,"roughnessFactor":0.272165536880493}}],"meshes":[{"name":"SM_Hous_25_A","primitives":[{"attributes":{"NORMAL":2,"POSITION":1,"TEXCOORD_0":3},"indices":0,"material":0,"mode":4},{"attributes":{"NORMAL":6,"POSITION":5,"TEXCOORD_0":7},"indices":4,"material":1,"mode":4},{"attributes":{"NORMAL":10,"POSITION":9,"TEXCOORD_0":11},"indices":8,"material":2,"mode":4}]}],"nodes":[{"mesh":0,"name":"SM_Hous_25_A","rotation":[0,0,0,1],"scale":[1,1,1],"translation":[147.096755981445,0,0]}],"samplers":[{}],"scene":0,"scenes":[{"name":"Root Scene","nodes":[0]}],"textures":[{"name":"base_color_texture","sampler":0,"source":0},{"name":"base_color_texture","sampler":0,"source":1}]}