{"accessors":[{"bufferView":0,"byteOffset":0,"componentType":5123,"count":5706,"type":"SCALAR"},{"bufferView":1,"byteOffset":0,"componentType":5126,"count":3450,"max":[3.61098194122314,12.3413648605347,6.38378143310547],"min":[-3.55629634857178,-0.00000025021356,-6.21438360214233],"type":"VEC3"},{"bufferView":2,"byteOffset":0,"componentType":5126,"count":3450,"type":"VEC3"},{"bufferView":3,"byteOffset":0,"componentType":5126,"count":3450,"type":"VEC2"}],"asset":{"generator":"FBX2glTF v0.13.1","version":"2.0"},"bufferViews":[{"buffer":0,"byteLength":11412,"byteOffset":0,"target":34963},{"buffer":0,"byteLength":41400,"byteOffset":11412,"target":34962},{"buffer":0,"byteLength":41400,"byteOffset":52812,"target":34962},{"buffer":0,"byteLength":27600,"byteOffset":94212,"target":34962}],"buffers":[{"byteLength":121812,"uri":"SM_Hous_26_B.bin"}],"images":[{"name":"Polygon_Texture_vol2","uri":"../Textures/Polygon_Texture_vol2.png"}],"materials":[{"alphaMode":"OPAQUE","doubleSided":false,"extras":{"fromFBX":{"isTruePBR":false,"shadingModel":"Phong"}},"name":"Material","pbrMetallicRoughness":{"baseColorFactor":[1,1,1,1],"baseColorTexture":{"index":0,"texCoord":0},"metallicFactor":0.400000005960464,"roughnessFactor":0.272165536880493}}],"meshes":[{"name":"SM_Hous_26_B","primitives":[{"attributes":{"NORMAL":2,"POSITION":1,"TEXCOORD_0":3},"indices":0,"material":0,"mode":4}]}],"nodes":[{"mesh":0,"name":"SM_Hous_26_B","rotation":[0,0,0,1],"scale":[1,1,1],"translation":[46.3962936401367,0.000000125106780046735,-45.7303161621094]}],"samplers":[{}],"scene":0,"scenes":[{"name":"Root Scene","nodes":[0]}],"textures":[{"name":"base_color_texture","sampler":0,"source":0}]}