{"accessors":[{"bufferView":0,"byteOffset":0,"componentType":5125,"count":153372,"type":"SCALAR"},{"bufferView":1,"byteOffset":0,"componentType":5126,"count":100692,"max":[22.7221984863281,36.1384468078613,22.9851760864258],"min":[-22.7221965789795,-0.00000096987912,-22.985179901123],"type":"VEC3"},{"bufferView":2,"byteOffset":0,"componentType":5126,"count":100692,"type":"VEC3"},{"bufferView":3,"byteOffset":0,"componentType":5126,"count":100692,"type":"VEC2"},{"bufferView":4,"byteOffset":0,"componentType":5123,"count":1134,"type":"SCALAR"},{"bufferView":5,"byteOffset":0,"componentType":5126,"count":414,"max":[20.7551231384277,16.9240379333496,21.0388298034668],"min":[-20.7551212310791,3.35024309158325,-21.0388317108154],"type":"VEC3"},{"bufferView":6,"byteOffset":0,"componentType":5126,"count":414,"type":"VEC3"},{"bufferView":7,"byteOffset":0,"componentType":5126,"count":414,"type":"VEC2"}],"asset":{"generator":"FBX2glTF v0.13.1","version":"2.0"},"bufferViews":[{"buffer":0,"byteLength":613488,"byteOffset":0,"target":34963},{"buffer":0,"byteLength":1208304,"byteOffset":613488,"target":34962},{"buffer":0,"byteLength":1208304,"byteOffset":1821792,"target":34962},{"buffer":0,"byteLength":805536,"byteOffset":3030096,"target":34962},{"buffer":0,"byteLength":2268,"byteOffset":3835632,"target":34963},{"buffer":0,"byteLength":4968,"byteOffset":3837900,"target":34962},{"buffer":0,"byteLength":4968,"byteOffset":3842868,"target":34962},{"buffer":0,"byteLength":3312,"byteOffset":3847836,"target":34962}],"buffers":[{"byteLength":3851148,"uri":"SM_Hous_20_A.bin"}],"images":[{"name":"Polygon_Texture_vol2","uri":"../Textures/Polygon_Texture_vol2.png"},{"name":"Polygon_Camping_Texture_vol2.0","uri":"Polygon_Camping_Texture_vol2.0.jpg"}],"materials":[{"alphaMode":"OPAQUE","doubleSided":false,"extras":{"fromFBX":{"isTruePBR":false,"shadingModel":"Phong"}},"name":"Material","pbrMetallicRoughness":{"baseColorFactor":[1,1,1,1],"baseColorTexture":{"index":0,"texCoord":0},"metallicFactor":0.400000005960464,"roughnessFactor":0.272165536880493}},{"alphaMode":"OPAQUE","doubleSided":false,"extras":{"fromFBX":{"isTruePBR":false,"shadingModel":"Phong"}},"name":"Glass","pbrMetallicRoughness":{"baseColorFactor":[1,1,1,1],"baseColorTexture":{"index":1,"texCoord":0},"metallicFactor":0.400000005960464,"roughnessFactor":0.272165536880493}}],"meshes":[{"name":"SM_Hous_20_A","primitives":[{"attributes":{"NORMAL":2,"POSITION":1,"TEXCOORD_0":3},"indices":0,"material":0,"mode":4},{"attributes":{"NORMAL":6,"POSITION":5,"TEXCOORD_0":7},"indices":4,"material":1,"mode":4}]}],"nodes":[{"mesh":0,"name":"SM_Hous_20_A","rotation":[0,0,0,1],"scale":[1,1,1],"translation":[205.955490112305,0,0.00000101899422588758]}],"samplers":[{}],"scene":0,"scenes":[{"name":"Root Scene","nodes":[0]}],"textures":[{"name":"base_color_texture","sampler":0,"source":0},{"name":"base_color_texture","sampler":0,"source":1}]}