{"accessors":[{"bufferView":0,"byteOffset":0,"componentType":5123,"count":36147,"type":"SCALAR"},{"bufferView":1,"byteOffset":0,"componentType":5126,"count":23403,"max":[4.77919101715088,8.40961074829102,4.55239486694336],"min":[-2.73471307754517,0,-3.40987777709961],"type":"VEC3"},{"bufferView":2,"byteOffset":0,"componentType":5126,"count":23403,"type":"VEC3"},{"bufferView":3,"byteOffset":0,"componentType":5126,"count":23403,"type":"VEC2"},{"bufferView":4,"byteOffset":0,"componentType":5123,"count":48,"type":"SCALAR"},{"bufferView":5,"byteOffset":0,"componentType":5126,"count":28,"max":[4.54884624481201,2.50785756111145,1.79753577709198],"min":[-2.53375935554504,1.22214138507843,-3.14681935310364],"type":"VEC3"},{"bufferView":6,"byteOffset":0,"componentType":5126,"count":28,"type":"VEC3"},{"bufferView":7,"byteOffset":0,"componentType":5126,"count":28,"type":"VEC2"}],"asset":{"generator":"FBX2glTF v0.13.1","version":"2.0"},"bufferViews":[{"buffer":0,"byteLength":72294,"byteOffset":0,"target":34963},{"buffer":0,"byteLength":280836,"byteOffset":72296,"target":34962},{"buffer":0,"byteLength":280836,"byteOffset":353132,"target":34962},{"buffer":0,"byteLength":187224,"byteOffset":633968,"target":34962},{"buffer":0,"byteLength":96,"byteOffset":821192,"target":34963},{"buffer":0,"byteLength":336,"byteOffset":821288,"target":34962},{"buffer":0,"byteLength":336,"byteOffset":821624,"target":34962},{"buffer":0,"byteLength":224,"byteOffset":821960,"target":34962}],"buffers":[{"byteLength":822184,"uri":"SM_hous_04_B.bin"}],"images":[{"name":"Polygon_Texture_vol2","uri":"../Textures/Polygon_Texture_vol2.png"},{"name":"Polygon_Camping_Texture_vol2.0","uri":"Polygon_Camping_Texture_vol2.0.jpg"}],"materials":[{"alphaMode":"OPAQUE","doubleSided":false,"extras":{"fromFBX":{"isTruePBR":false,"shadingModel":"Phong"}},"name":"Material","pbrMetallicRoughness":{"baseColorFactor":[1,1,1,1],"baseColorTexture":{"index":0,"texCoord":0},"metallicFactor":0.400000005960464,"roughnessFactor":0.272165536880493}},{"alphaMode":"OPAQUE","doubleSided":false,"extras":{"fromFBX":{"isTruePBR":false,"shadingModel":"Phong"}},"name":"Glass","pbrMetallicRoughness":{"baseColorFactor":[1,1,1,1],"baseColorTexture":{"index":1,"texCoord":0},"metallicFactor":0.400000005960464,"roughnessFactor":0.272165536880493}}],"meshes":[{"name":"SM_hous_04_B","primitives":[{"attributes":{"NORMAL":2,"POSITION":1,"TEXCOORD_0":3},"indices":0,"material":0,"mode":4},{"attributes":{"NORMAL":6,"POSITION":5,"TEXCOORD_0":7},"indices":4,"material":1,"mode":4}]}],"nodes":[{"mesh":0,"name":"SM_hous_04_B","rotation":[0,0,0,1],"scale":[1,1,1],"translation":[377.508666992188,0,-59.1761703491211]}],"samplers":[{}],"scene":0,"scenes":[{"name":"Root Scene","nodes":[0]}],"textures":[{"name":"base_color_texture","sampler":0,"source":0},{"name":"base_color_texture","sampler":0,"source":1}]}