{"accessors":[{"bufferView":0,"byteOffset":0,"componentType":5123,"count":31272,"type":"SCALAR"},{"bufferView":1,"byteOffset":0,"componentType":5126,"count":18894,"max":[7.3461012840271,7.39423942565918,8.2394437789917],"min":[-7.75768089294434,-0.03389357402921,-4.98101472854614],"type":"VEC3"},{"bufferView":2,"byteOffset":0,"componentType":5126,"count":18894,"type":"VEC3"},{"bufferView":3,"byteOffset":0,"componentType":5126,"count":18894,"type":"VEC2"},{"bufferView":4,"byteOffset":0,"componentType":5123,"count":360,"type":"SCALAR"},{"bufferView":5,"byteOffset":0,"componentType":5126,"count":216,"max":[6.68694829940796,2.72639679908752,2.71034288406372],"min":[-6.87532138824463,1.5187178850174,-4.27896881103516],"type":"VEC3"},{"bufferView":6,"byteOffset":0,"componentType":5126,"count":216,"type":"VEC3"},{"bufferView":7,"byteOffset":0,"componentType":5126,"count":216,"type":"VEC2"}],"asset":{"generator":"FBX2glTF v0.13.1","version":"2.0"},"bufferViews":[{"buffer":0,"byteLength":62544,"byteOffset":0,"target":34963},{"buffer":0,"byteLength":226728,"byteOffset":62544,"target":34962},{"buffer":0,"byteLength":226728,"byteOffset":289272,"target":34962},{"buffer":0,"byteLength":151152,"byteOffset":516000,"target":34962},{"buffer":0,"byteLength":720,"byteOffset":667152,"target":34963},{"buffer":0,"byteLength":2592,"byteOffset":667872,"target":34962},{"buffer":0,"byteLength":2592,"byteOffset":670464,"target":34962},{"buffer":0,"byteLength":1728,"byteOffset":673056,"target":34962}],"buffers":[{"byteLength":674784,"uri":"SM_hous_03_A.bin"}],"images":[{"name":"Polygon_Texture_vol2","uri":"../Textures/Polygon_Texture_vol2.png"},{"name":"Polygon_Camping_Texture_vol2.0","uri":"Polygon_Camping_Texture_vol2.0.jpg"}],"materials":[{"alphaMode":"OPAQUE","doubleSided":false,"extras":{"fromFBX":{"isTruePBR":false,"shadingModel":"Phong"}},"name":"Material","pbrMetallicRoughness":{"baseColorFactor":[1,1,1,1],"baseColorTexture":{"index":0,"texCoord":0},"metallicFactor":0.400000005960464,"roughnessFactor":0.272165536880493}},{"alphaMode":"OPAQUE","doubleSided":false,"extras":{"fromFBX":{"isTruePBR":false,"shadingModel":"Phong"}},"name":"Glass","pbrMetallicRoughness":{"baseColorFactor":[1,1,1,1],"baseColorTexture":{"index":1,"texCoord":0},"metallicFactor":0.400000005960464,"roughnessFactor":0.272165536880493}}],"meshes":[{"name":"SM_hous_03_A","primitives":[{"attributes":{"NORMAL":2,"POSITION":1,"TEXCOORD_0":3},"indices":0,"material":0,"mode":4},{"attributes":{"NORMAL":6,"POSITION":5,"TEXCOORD_0":7},"indices":4,"material":1,"mode":4}]}],"nodes":[{"mesh":0,"name":"SM_hous_03_A","rotation":[0,0,0,1],"scale":[1,1,1],"translation":[391.481658935547,0,-0.15403982996941]}],"samplers":[{}],"scene":0,"scenes":[{"name":"Root Scene","nodes":[0]}],"textures":[{"name":"base_color_texture","sampler":0,"source":0},{"name":"base_color_texture","sampler":0,"source":1}]}