{"accessors":[{"bufferView":0,"byteOffset":0,"componentType":5123,"count":28362,"type":"SCALAR"},{"bufferView":1,"byteOffset":0,"componentType":5126,"count":17112,"max":[4.58043241500854,24.4193840026855,7.54589462280273],"min":[-7.60738897323608,-0.04408448934555,-8.32442951202393],"type":"VEC3"},{"bufferView":2,"byteOffset":0,"componentType":5126,"count":17112,"type":"VEC3"},{"bufferView":3,"byteOffset":0,"componentType":5126,"count":17112,"type":"VEC2"},{"bufferView":4,"byteOffset":0,"componentType":5123,"count":1080,"type":"SCALAR"},{"bufferView":5,"byteOffset":0,"componentType":5126,"count":390,"max":[3.98640823364258,19.8954429626465,3.87844347953796],"min":[-4.95586156845093,4.01563262939453,-7.32977819442749],"type":"VEC3"},{"bufferView":6,"byteOffset":0,"componentType":5126,"count":390,"type":"VEC3"},{"bufferView":7,"byteOffset":0,"componentType":5126,"count":390,"type":"VEC2"}],"asset":{"generator":"FBX2glTF v0.13.1","version":"2.0"},"bufferViews":[{"buffer":0,"byteLength":56724,"byteOffset":0,"target":34963},{"buffer":0,"byteLength":205344,"byteOffset":56724,"target":34962},{"buffer":0,"byteLength":205344,"byteOffset":262068,"target":34962},{"buffer":0,"byteLength":136896,"byteOffset":467412,"target":34962},{"buffer":0,"byteLength":2160,"byteOffset":604308,"target":34963},{"buffer":0,"byteLength":4680,"byteOffset":606468,"target":34962},{"buffer":0,"byteLength":4680,"byteOffset":611148,"target":34962},{"buffer":0,"byteLength":3120,"byteOffset":615828,"target":34962}],"buffers":[{"byteLength":618948,"uri":"SM_Hous_28_A.bin"}],"images":[{"name":"Polygon_Texture_vol2","uri":"../Textures/Polygon_Texture_vol2.png"},{"name":"Polygon_Camping_Texture_vol2.0","uri":"Polygon_Camping_Texture_vol2.0.jpg"}],"materials":[{"alphaMode":"OPAQUE","doubleSided":false,"extras":{"fromFBX":{"isTruePBR":false,"shadingModel":"Phong"}},"name":"Material","pbrMetallicRoughness":{"baseColorFactor":[1,1,1,1],"baseColorTexture":{"index":0,"texCoord":0},"metallicFactor":0.400000005960464,"roughnessFactor":0.272165536880493}},{"alphaMode":"OPAQUE","doubleSided":false,"extras":{"fromFBX":{"isTruePBR":false,"shadingModel":"Phong"}},"name":"Glass","pbrMetallicRoughness":{"baseColorFactor":[1,1,1,1],"baseColorTexture":{"index":1,"texCoord":0},"metallicFactor":0.400000005960464,"roughnessFactor":0.272165536880493}}],"meshes":[{"name":"SM_Hous_28_A","primitives":[{"attributes":{"NORMAL":2,"POSITION":1,"TEXCOORD_0":3},"indices":0,"material":0,"mode":4},{"attributes":{"NORMAL":6,"POSITION":5,"TEXCOORD_0":7},"indices":4,"material":1,"mode":4}]}],"nodes":[{"mesh":0,"name":"SM_Hous_28_A","rotation":[0,0,0,1],"scale":[1,1,1],"translation":[30.4095516204834,-0.01751489751041,-3.89203357696533]}],"samplers":[{}],"scene":0,"scenes":[{"name":"Root Scene","nodes":[0]}],"textures":[{"name":"base_color_texture","sampler":0,"source":0},{"name":"base_color_texture","sampler":0,"source":1}]}