{"accessors":[{"bufferView":0,"byteOffset":0,"componentType":5123,"count":25410,"type":"SCALAR"},{"bufferView":1,"byteOffset":0,"componentType":5126,"count":15387,"max":[3.00990009307861,7.13938760757446,3.46905875205994],"min":[-3.00989961624146,0,-5.47230625152588],"type":"VEC3"},{"bufferView":2,"byteOffset":0,"componentType":5126,"count":15387,"type":"VEC3"},{"bufferView":3,"byteOffset":0,"componentType":5126,"count":15387,"type":"VEC2"},{"bufferView":4,"byteOffset":0,"componentType":5123,"count":108,"type":"SCALAR"},{"bufferView":5,"byteOffset":0,"componentType":5126,"count":48,"max":[2.5984218120575,4.32297706604004,2.28891396522522],"min":[-2.5984206199646,0.551792204380035,-4.75771236419678],"type":"VEC3"},{"bufferView":6,"byteOffset":0,"componentType":5126,"count":48,"type":"VEC3"},{"bufferView":7,"byteOffset":0,"componentType":5126,"count":48,"type":"VEC2"}],"asset":{"generator":"FBX2glTF v0.13.1","version":"2.0"},"bufferViews":[{"buffer":0,"byteLength":50820,"byteOffset":0,"target":34963},{"buffer":0,"byteLength":184644,"byteOffset":50820,"target":34962},{"buffer":0,"byteLength":184644,"byteOffset":235464,"target":34962},{"buffer":0,"byteLength":123096,"byteOffset":420108,"target":34962},{"buffer":0,"byteLength":216,"byteOffset":543204,"target":34963},{"buffer":0,"byteLength":576,"byteOffset":543420,"target":34962},{"buffer":0,"byteLength":576,"byteOffset":543996,"target":34962},{"buffer":0,"byteLength":384,"byteOffset":544572,"target":34962}],"buffers":[{"byteLength":544956,"uri":"SM_hous_01_A.bin"}],"images":[{"name":"Polygon_Texture_vol2","uri":"../Textures/Polygon_Texture_vol2.png"},{"name":"Polygon_Camping_Texture_vol2.0","uri":"Polygon_Camping_Texture_vol2.0.jpg"}],"materials":[{"alphaMode":"OPAQUE","doubleSided":false,"extras":{"fromFBX":{"isTruePBR":false,"shadingModel":"Phong"}},"name":"Material","pbrMetallicRoughness":{"baseColorFactor":[1,1,1,1],"baseColorTexture":{"index":0,"texCoord":0},"metallicFactor":0.400000005960464,"roughnessFactor":0.272165536880493}},{"alphaMode":"OPAQUE","doubleSided":false,"extras":{"fromFBX":{"isTruePBR":false,"shadingModel":"Phong"}},"name":"Glass","pbrMetallicRoughness":{"baseColorFactor":[1,1,1,1],"baseColorTexture":{"index":1,"texCoord":0},"metallicFactor":0.400000005960464,"roughnessFactor":0.272165536880493}}],"meshes":[{"name":"SM_hous_01_A","primitives":[{"attributes":{"NORMAL":2,"POSITION":1,"TEXCOORD_0":3},"indices":0,"material":0,"mode":4},{"attributes":{"NORMAL":6,"POSITION":5,"TEXCOORD_0":7},"indices":4,"material":1,"mode":4}]}],"nodes":[{"mesh":0,"name":"SM_hous_01_A","rotation":[0,0,0,1],"scale":[1,1,1],"translation":[411.848266601562,0,-0.5378429889679]}],"samplers":[{}],"scene":0,"scenes":[{"name":"Root Scene","nodes":[0]}],"textures":[{"name":"base_color_texture","sampler":0,"source":0},{"name":"base_color_texture","sampler":0,"source":1}]}