{"accessors":[{"bufferView":0,"byteOffset":0,"componentType":5123,"count":9294,"type":"SCALAR"},{"bufferView":1,"byteOffset":0,"componentType":5126,"count":5819,"max":[2.89359998703003,13.6321210861206,4.9978723526001],"min":[-4.08267736434937,-0.0018905493198,-2.89359998703003],"type":"VEC3"},{"bufferView":2,"byteOffset":0,"componentType":5126,"count":5819,"type":"VEC3"},{"bufferView":3,"byteOffset":0,"componentType":5126,"count":5819,"type":"VEC2"},{"bufferView":4,"byteOffset":0,"componentType":5123,"count":3096,"type":"SCALAR"},{"bufferView":5,"byteOffset":0,"componentType":5126,"count":1650,"max":[6.59634971618652,6.57714748382568,0.000000270112252565013],"min":[-6.59625291824341,-6.5771484375,-1.67145597934723],"type":"VEC3"},{"bufferView":6,"byteOffset":0,"componentType":5126,"count":1650,"type":"VEC3"},{"bufferView":7,"byteOffset":0,"componentType":5126,"count":1650,"type":"VEC2"},{"bufferView":8,"byteOffset":0,"componentType":5123,"count":30,"type":"SCALAR"},{"bufferView":9,"byteOffset":0,"componentType":5126,"count":14,"max":[2.21827602386475,8.29679775238037,0.65090000629425],"min":[-2.21827602386475,6.23181819915771,-0.65090000629425],"type":"VEC3"},{"bufferView":10,"byteOffset":0,"componentType":5126,"count":14,"type":"VEC3"},{"bufferView":11,"byteOffset":0,"componentType":5126,"count":14,"type":"VEC2"}],"asset":{"generator":"FBX2glTF v0.13.1","version":"2.0"},"bufferViews":[{"buffer":0,"byteLength":18588,"byteOffset":0,"target":34963},{"buffer":0,"byteLength":69828,"byteOffset":18588,"target":34962},{"buffer":0,"byteLength":69828,"byteOffset":88416,"target":34962},{"buffer":0,"byteLength":46552,"byteOffset":158244,"target":34962},{"buffer":0,"byteLength":6192,"byteOffset":204796,"target":34963},{"buffer":0,"byteLength":19800,"byteOffset":210988,"target":34962},{"buffer":0,"byteLength":19800,"byteOffset":230788,"target":34962},{"buffer":0,"byteLength":13200,"byteOffset":250588,"target":34962},{"buffer":0,"byteLength":60,"byteOffset":263788,"target":34963},{"buffer":0,"byteLength":168,"byteOffset":263848,"target":34962},{"buffer":0,"byteLength":168,"byteOffset":264016,"target":34962},{"buffer":0,"byteLength":112,"byteOffset":264184,"target":34962}],"buffers":[{"byteLength":264296,"uri":"SM_hous_05_A.bin"}],"images":[{"name":"Polygon_Texture_vol2","uri":"../Textures/Polygon_Texture_vol2.png"},{"name":"Polygon_Camping_Texture_vol2.0","uri":"Polygon_Camping_Texture_vol2.0.jpg"}],"materials":[{"alphaMode":"OPAQUE","doubleSided":false,"extras":{"fromFBX":{"isTruePBR":false,"shadingModel":"Phong"}},"name":"Material","pbrMetallicRoughness":{"baseColorFactor":[1,1,1,1],"baseColorTexture":{"index":0,"texCoord":0},"metallicFactor":0.400000005960464,"roughnessFactor":0.272165536880493}},{"alphaMode":"OPAQUE","doubleSided":false,"extras":{"fromFBX":{"isTruePBR":false,"shadingModel":"Phong"}},"name":"Glass","pbrMetallicRoughness":{"baseColorFactor":[1,1,1,1],"baseColorTexture":{"index":1,"texCoord":0},"metallicFactor":0.400000005960464,"roughnessFactor":0.272165536880493}}],"meshes":[{"name":"SM_hous_05_A","primitives":[{"attributes":{"NORMAL":2,"POSITION":1,"TEXCOORD_0":3},"indices":0,"material":0,"mode":4},{"attributes":{"NORMAL":10,"POSITION":9,"TEXCOORD_0":11},"indices":8,"material":1,"mode":4}]},{"name":"SM_Screw_01_A","primitives":[{"attributes":{"NORMAL":6,"POSITION":5,"TEXCOORD_0":7},"indices":4,"material":0,"mode":4}]}],"nodes":[{"children":[1],"mesh":0,"name":"SM_hous_05_A","rotation":[0,0,0,1],"scale":[1,1,1],"translation":[369.971435546875,0,0]},{"mesh":1,"name":"SM_Screw_01_A","rotation":[0,0,0,1],"scale":[1,1,1],"translation":[0,7.96054410934448,6.66932773590088]}],"samplers":[{}],"scene":0,"scenes":[{"name":"Root Scene","nodes":[0]}],"textures":[{"name":"base_color_texture","sampler":0,"source":0},{"name":"base_color_texture","sampler":0,"source":1}]}