{"accessors":[{"bufferView":0,"byteOffset":0,"componentType":5123,"count":30087,"type":"SCALAR"},{"bufferView":1,"byteOffset":0,"componentType":5126,"count":19649,"max":[4.31015586853027,11.8436126708984,9.27681159973145],"min":[-4.29903364181519,-0.01289944723248,-7.86885595321655],"type":"VEC3"},{"bufferView":2,"byteOffset":0,"componentType":5126,"count":19649,"type":"VEC3"},{"bufferView":3,"byteOffset":0,"componentType":5126,"count":19649,"type":"VEC2"},{"bufferView":4,"byteOffset":0,"componentType":5123,"count":168,"type":"SCALAR"},{"bufferView":5,"byteOffset":0,"componentType":5126,"count":112,"max":[3.33286619186401,8.19282817840576,4.97811126708984],"min":[-3.32174301147461,5.05717992782593,-4.97811031341553],"type":"VEC3"},{"bufferView":6,"byteOffset":0,"componentType":5126,"count":112,"type":"VEC3"},{"bufferView":7,"byteOffset":0,"componentType":5126,"count":112,"type":"VEC2"}],"asset":{"generator":"FBX2glTF v0.13.1","version":"2.0"},"bufferViews":[{"buffer":0,"byteLength":60174,"byteOffset":0,"target":34963},{"buffer":0,"byteLength":235788,"byteOffset":60176,"target":34962},{"buffer":0,"byteLength":235788,"byteOffset":295964,"target":34962},{"buffer":0,"byteLength":157192,"byteOffset":531752,"target":34962},{"buffer":0,"byteLength":336,"byteOffset":688944,"target":34963},{"buffer":0,"byteLength":1344,"byteOffset":689280,"target":34962},{"buffer":0,"byteLength":1344,"byteOffset":690624,"target":34962},{"buffer":0,"byteLength":896,"byteOffset":691968,"target":34962}],"buffers":[{"byteLength":692864,"uri":"SM_Hous_13_A.bin"}],"images":[{"name":"Polygon_Texture_vol2","uri":"../Textures/Polygon_Texture_vol2.png"},{"name":"Polygon_Camping_Texture_vol2.0","uri":"Polygon_Camping_Texture_vol2.0.jpg"}],"materials":[{"alphaMode":"OPAQUE","doubleSided":false,"extras":{"fromFBX":{"isTruePBR":false,"shadingModel":"Phong"}},"name":"Material","pbrMetallicRoughness":{"baseColorFactor":[1,1,1,1],"baseColorTexture":{"index":0,"texCoord":0},"metallicFactor":0.400000005960464,"roughnessFactor":0.272165536880493}},{"alphaMode":"OPAQUE","doubleSided":false,"extras":{"fromFBX":{"isTruePBR":false,"shadingModel":"Phong"}},"name":"Glass","pbrMetallicRoughness":{"baseColorFactor":[1,1,1,1],"baseColorTexture":{"index":1,"texCoord":0},"metallicFactor":0.400000005960464,"roughnessFactor":0.272165536880493}}],"meshes":[{"name":"SM_Hous_13_A","primitives":[{"attributes":{"NORMAL":2,"POSITION":1,"TEXCOORD_0":3},"indices":0,"material":0,"mode":4},{"attributes":{"NORMAL":6,"POSITION":5,"TEXCOORD_0":7},"indices":4,"material":1,"mode":4}]}],"nodes":[{"mesh":0,"name":"SM_Hous_13_A","rotation":[0,0,0,1],"scale":[1,1,1],"translation":[302.002014160156,0,1.8631227016449]}],"samplers":[{}],"scene":0,"scenes":[{"name":"Root Scene","nodes":[0]}],"textures":[{"name":"base_color_texture","sampler":0,"source":0},{"name":"base_color_texture","sampler":0,"source":1}]}