{"accessors":[{"bufferView":0,"byteOffset":0,"componentType":5123,"count":35796,"type":"SCALAR"},{"bufferView":1,"byteOffset":0,"componentType":5126,"count":22632,"max":[6.42088842391968,12.7064800262451,6.35594463348389],"min":[-6.77353429794312,-0.00000062315542,-6.35913324356079],"type":"VEC3"},{"bufferView":2,"byteOffset":0,"componentType":5126,"count":22632,"type":"VEC3"},{"bufferView":3,"byteOffset":0,"componentType":5126,"count":22632,"type":"VEC2"},{"bufferView":4,"byteOffset":0,"componentType":5123,"count":210,"type":"SCALAR"},{"bufferView":5,"byteOffset":0,"componentType":5126,"count":140,"max":[5.53472089767456,5.49603080749512,5.54843235015869],"min":[-5.07775545120239,1.39654290676117,-5.04766082763672],"type":"VEC3"},{"bufferView":6,"byteOffset":0,"componentType":5126,"count":140,"type":"VEC3"},{"bufferView":7,"byteOffset":0,"componentType":5126,"count":140,"type":"VEC2"}],"asset":{"generator":"FBX2glTF v0.13.1","version":"2.0"},"bufferViews":[{"buffer":0,"byteLength":71592,"byteOffset":0,"target":34963},{"buffer":0,"byteLength":271584,"byteOffset":71592,"target":34962},{"buffer":0,"byteLength":271584,"byteOffset":343176,"target":34962},{"buffer":0,"byteLength":181056,"byteOffset":614760,"target":34962},{"buffer":0,"byteLength":420,"byteOffset":795816,"target":34963},{"buffer":0,"byteLength":1680,"byteOffset":796236,"target":34962},{"buffer":0,"byteLength":1680,"byteOffset":797916,"target":34962},{"buffer":0,"byteLength":1120,"byteOffset":799596,"target":34962}],"buffers":[{"byteLength":800716,"uri":"SM_Hous_19_B.bin"}],"images":[{"name":"Polygon_Texture_vol2","uri":"../Textures/Polygon_Texture_vol2.png"},{"name":"Polygon_Camping_Texture_vol2.0","uri":"Polygon_Camping_Texture_vol2.0.jpg"}],"materials":[{"alphaMode":"OPAQUE","doubleSided":false,"extras":{"fromFBX":{"isTruePBR":false,"shadingModel":"Phong"}},"name":"Material","pbrMetallicRoughness":{"baseColorFactor":[1,1,1,1],"baseColorTexture":{"index":0,"texCoord":0},"metallicFactor":0.400000005960464,"roughnessFactor":0.272165536880493}},{"alphaMode":"OPAQUE","doubleSided":false,"extras":{"fromFBX":{"isTruePBR":false,"shadingModel":"Phong"}},"name":"Glass","pbrMetallicRoughness":{"baseColorFactor":[1,1,1,1],"baseColorTexture":{"index":1,"texCoord":0},"metallicFactor":0.400000005960464,"roughnessFactor":0.272165536880493}}],"meshes":[{"name":"SM_Hous_19_B","primitives":[{"attributes":{"NORMAL":2,"POSITION":1,"TEXCOORD_0":3},"indices":0,"material":0,"mode":4},{"attributes":{"NORMAL":6,"POSITION":5,"TEXCOORD_0":7},"indices":4,"material":1,"mode":4}]}],"nodes":[{"mesh":0,"name":"SM_Hous_19_B","rotation":[0,0,0,1],"scale":[1,1,1],"translation":[235.971145629883,0,-60.0797004699707]}],"samplers":[{}],"scene":0,"scenes":[{"name":"Root Scene","nodes":[0]}],"textures":[{"name":"base_color_texture","sampler":0,"source":0},{"name":"base_color_texture","sampler":0,"source":1}]}