{"accessors":[{"bufferView":0,"byteOffset":0,"componentType":5123,"count":30060,"type":"SCALAR"},{"bufferView":1,"byteOffset":0,"componentType":5126,"count":18976,"max":[5.51633024215698,9.3025598526001,8.00918197631836],"min":[-5.51633024215698,-0.00654004979879,-5.17530059814453],"type":"VEC3"},{"bufferView":2,"byteOffset":0,"componentType":5126,"count":18976,"type":"VEC3"},{"bufferView":3,"byteOffset":0,"componentType":5126,"count":18976,"type":"VEC2"},{"bufferView":4,"byteOffset":0,"componentType":5123,"count":144,"type":"SCALAR"},{"bufferView":5,"byteOffset":0,"componentType":5126,"count":64,"max":[3.5510106086731,3.27350211143494,3.55100965499878],"min":[-3.5510106086731,2.04045391082764,-3.5510106086731],"type":"VEC3"},{"bufferView":6,"byteOffset":0,"componentType":5126,"count":64,"type":"VEC3"},{"bufferView":7,"byteOffset":0,"componentType":5126,"count":64,"type":"VEC2"}],"asset":{"generator":"FBX2glTF v0.13.1","version":"2.0"},"bufferViews":[{"buffer":0,"byteLength":60120,"byteOffset":0,"target":34963},{"buffer":0,"byteLength":227712,"byteOffset":60120,"target":34962},{"buffer":0,"byteLength":227712,"byteOffset":287832,"target":34962},{"buffer":0,"byteLength":151808,"byteOffset":515544,"target":34962},{"buffer":0,"byteLength":288,"byteOffset":667352,"target":34963},{"buffer":0,"byteLength":768,"byteOffset":667640,"target":34962},{"buffer":0,"byteLength":768,"byteOffset":668408,"target":34962},{"buffer":0,"byteLength":512,"byteOffset":669176,"target":34962}],"buffers":[{"byteLength":669688,"uri":"SM_Hous_14_A.bin"}],"images":[{"name":"Polygon_Texture_vol2","uri":"../Textures/Polygon_Texture_vol2.png"},{"name":"Polygon_Camping_Texture_vol2.0","uri":"Polygon_Camping_Texture_vol2.0.jpg"}],"materials":[{"alphaMode":"OPAQUE","doubleSided":false,"extras":{"fromFBX":{"isTruePBR":false,"shadingModel":"Phong"}},"name":"Material","pbrMetallicRoughness":{"baseColorFactor":[1,1,1,1],"baseColorTexture":{"index":0,"texCoord":0},"metallicFactor":0.400000005960464,"roughnessFactor":0.272165536880493}},{"alphaMode":"OPAQUE","doubleSided":false,"extras":{"fromFBX":{"isTruePBR":false,"shadingModel":"Phong"}},"name":"Glass","pbrMetallicRoughness":{"baseColorFactor":[1,1,1,1],"baseColorTexture":{"index":1,"texCoord":0},"metallicFactor":0.400000005960464,"roughnessFactor":0.272165536880493}}],"meshes":[{"name":"SM_Hous_14_A","primitives":[{"attributes":{"NORMAL":2,"POSITION":1,"TEXCOORD_0":3},"indices":0,"material":0,"mode":4},{"attributes":{"NORMAL":6,"POSITION":5,"TEXCOORD_0":7},"indices":4,"material":1,"mode":4}]}],"nodes":[{"mesh":0,"name":"SM_Hous_14_A","rotation":[0,0,0,1],"scale":[1,1,1],"translation":[291.530212402344,0,-0.00000000641578]}],"samplers":[{}],"scene":0,"scenes":[{"name":"Root Scene","nodes":[0]}],"textures":[{"name":"base_color_texture","sampler":0,"source":0},{"name":"base_color_texture","sampler":0,"source":1}]}