{"accessors":[{"bufferView":0,"byteOffset":0,"componentType":5123,"count":30081,"type":"SCALAR"},{"bufferView":1,"byteOffset":0,"componentType":5126,"count":19645,"max":[4.31015586853027,11.8436126708984,9.27681159973145],"min":[-4.29903364181519,-0.01289944723248,-7.86885595321655],"type":"VEC3"},{"bufferView":2,"byteOffset":0,"componentType":5126,"count":19645,"type":"VEC3"},{"bufferView":3,"byteOffset":0,"componentType":5126,"count":19645,"type":"VEC2"},{"bufferView":4,"byteOffset":0,"componentType":5123,"count":174,"type":"SCALAR"},{"bufferView":5,"byteOffset":0,"componentType":5126,"count":116,"max":[3.33286619186401,8.19282817840576,4.97811126708984],"min":[-3.32174301147461,1.8049111366272,-3.79926204681396],"type":"VEC3"},{"bufferView":6,"byteOffset":0,"componentType":5126,"count":116,"type":"VEC3"},{"bufferView":7,"byteOffset":0,"componentType":5126,"count":116,"type":"VEC2"}],"asset":{"generator":"FBX2glTF v0.13.1","version":"2.0"},"bufferViews":[{"buffer":0,"byteLength":60162,"byteOffset":0,"target":34963},{"buffer":0,"byteLength":235740,"byteOffset":60164,"target":34962},{"buffer":0,"byteLength":235740,"byteOffset":295904,"target":34962},{"buffer":0,"byteLength":157160,"byteOffset":531644,"target":34962},{"buffer":0,"byteLength":348,"byteOffset":688804,"target":34963},{"buffer":0,"byteLength":1392,"byteOffset":689152,"target":34962},{"buffer":0,"byteLength":1392,"byteOffset":690544,"target":34962},{"buffer":0,"byteLength":928,"byteOffset":691936,"target":34962}],"buffers":[{"byteLength":692864,"uri":"SM_Hous_13_B.bin"}],"images":[{"name":"Polygon_Texture_vol2","uri":"../Textures/Polygon_Texture_vol2.png"},{"name":"Polygon_Camping_Texture_vol2.0","uri":"Polygon_Camping_Texture_vol2.0.jpg"}],"materials":[{"alphaMode":"OPAQUE","doubleSided":false,"extras":{"fromFBX":{"isTruePBR":false,"shadingModel":"Phong"}},"name":"Material","pbrMetallicRoughness":{"baseColorFactor":[1,1,1,1],"baseColorTexture":{"index":0,"texCoord":0},"metallicFactor":0.400000005960464,"roughnessFactor":0.272165536880493}},{"alphaMode":"OPAQUE","doubleSided":false,"extras":{"fromFBX":{"isTruePBR":false,"shadingModel":"Phong"}},"name":"Glass","pbrMetallicRoughness":{"baseColorFactor":[1,1,1,1],"baseColorTexture":{"index":1,"texCoord":0},"metallicFactor":0.400000005960464,"roughnessFactor":0.272165536880493}}],"meshes":[{"name":"SM_Hous_13_B","primitives":[{"attributes":{"NORMAL":2,"POSITION":1,"TEXCOORD_0":3},"indices":0,"material":0,"mode":4},{"attributes":{"NORMAL":6,"POSITION":5,"TEXCOORD_0":7},"indices":4,"material":1,"mode":4}]}],"nodes":[{"mesh":0,"name":"SM_Hous_13_B","rotation":[0,0,0,1],"scale":[1,1,1],"translation":[302.002014160156,0,-56.3566970825195]}],"samplers":[{}],"scene":0,"scenes":[{"name":"Root Scene","nodes":[0]}],"textures":[{"name":"base_color_texture","sampler":0,"source":0},{"name":"base_color_texture","sampler":0,"source":1}]}