{"accessors":[{"bufferView":0,"byteOffset":0,"componentType":5123,"count":3483,"type":"SCALAR"},{"bufferView":1,"byteOffset":0,"componentType":5126,"count":2111,"max":[3.69557762145996,3.16102194786072,3.39056324958801],"min":[-3.48458695411682,0,-3.39056324958801],"type":"VEC3"},{"bufferView":2,"byteOffset":0,"componentType":5126,"count":2111,"type":"VEC3"},{"bufferView":3,"byteOffset":0,"componentType":5126,"count":2111,"type":"VEC2"},{"bufferView":4,"byteOffset":0,"componentType":5123,"count":6,"type":"SCALAR"},{"bufferView":5,"byteOffset":0,"componentType":5126,"count":4,"max":[0.0284818541258574,1.8578794002533,2.99535393714905],"min":[-0.40159383416176,0.909165501594543,2.99535393714905],"type":"VEC3"},{"bufferView":6,"byteOffset":0,"componentType":5126,"count":4,"type":"VEC3"},{"bufferView":7,"byteOffset":0,"componentType":5126,"count":4,"type":"VEC2"}],"asset":{"generator":"FBX2glTF v0.13.1","version":"2.0"},"bufferViews":[{"buffer":0,"byteLength":6966,"byteOffset":0,"target":34963},{"buffer":0,"byteLength":25332,"byteOffset":6968,"target":34962},{"buffer":0,"byteLength":25332,"byteOffset":32300,"target":34962},{"buffer":0,"byteLength":16888,"byteOffset":57632,"target":34962},{"buffer":0,"byteLength":12,"byteOffset":74520,"target":34963},{"buffer":0,"byteLength":48,"byteOffset":74532,"target":34962},{"buffer":0,"byteLength":48,"byteOffset":74580,"target":34962},{"buffer":0,"byteLength":32,"byteOffset":74628,"target":34962}],"buffers":[{"byteLength":74660,"uri":"SM_Hous_08_A.bin"}],"images":[{"name":"Polygon_Texture_vol2","uri":"../Textures/Polygon_Texture_vol2.png"},{"name":"Polygon_Camping_Texture_vol2.0","uri":"Polygon_Camping_Texture_vol2.0.jpg"}],"materials":[{"alphaMode":"OPAQUE","doubleSided":false,"extras":{"fromFBX":{"isTruePBR":false,"shadingModel":"Phong"}},"name":"Material","pbrMetallicRoughness":{"baseColorFactor":[1,1,1,1],"baseColorTexture":{"index":0,"texCoord":0},"metallicFactor":0.400000005960464,"roughnessFactor":0.272165536880493}},{"alphaMode":"OPAQUE","doubleSided":false,"extras":{"fromFBX":{"isTruePBR":false,"shadingModel":"Phong"}},"name":"Glass","pbrMetallicRoughness":{"baseColorFactor":[1,1,1,1],"baseColorTexture":{"index":1,"texCoord":0},"metallicFactor":0.400000005960464,"roughnessFactor":0.272165536880493}}],"meshes":[{"name":"SM_Hous_08_A","primitives":[{"attributes":{"NORMAL":2,"POSITION":1,"TEXCOORD_0":3},"indices":0,"material":0,"mode":4},{"attributes":{"NORMAL":6,"POSITION":5,"TEXCOORD_0":7},"indices":4,"material":1,"mode":4}]}],"nodes":[{"mesh":0,"name":"SM_Hous_08_A","rotation":[0,0,0,1],"scale":[1,1,1],"translation":[342.776794433594,0.00999999977648258,0]}],"samplers":[{}],"scene":0,"scenes":[{"name":"Root Scene","nodes":[0]}],"textures":[{"name":"base_color_texture","sampler":0,"source":0},{"name":"base_color_texture","sampler":0,"source":1}]}