{"accessors":[{"bufferView":0,"byteOffset":0,"componentType":5123,"count":41388,"type":"SCALAR"},{"bufferView":1,"byteOffset":0,"componentType":5126,"count":24134,"max":[5.00230932235718,7.87929916381836,7.24370241165161],"min":[-5.00230932235718,-0.000000033504,-4.93367433547974],"type":"VEC3"},{"bufferView":2,"byteOffset":0,"componentType":5126,"count":24134,"type":"VEC3"},{"bufferView":3,"byteOffset":0,"componentType":5126,"count":24134,"type":"VEC2"},{"bufferView":4,"byteOffset":0,"componentType":5123,"count":876,"type":"SCALAR"},{"bufferView":5,"byteOffset":0,"componentType":5126,"count":584,"max":[4.08576536178589,3.14950776100159,4.24203491210938],"min":[-4.09208869934082,1.12809121608734,-4.08892679214478],"type":"VEC3"},{"bufferView":6,"byteOffset":0,"componentType":5126,"count":584,"type":"VEC3"},{"bufferView":7,"byteOffset":0,"componentType":5126,"count":584,"type":"VEC2"}],"asset":{"generator":"FBX2glTF v0.13.1","version":"2.0"},"bufferViews":[{"buffer":0,"byteLength":82776,"byteOffset":0,"target":34963},{"buffer":0,"byteLength":289608,"byteOffset":82776,"target":34962},{"buffer":0,"byteLength":289608,"byteOffset":372384,"target":34962},{"buffer":0,"byteLength":193072,"byteOffset":661992,"target":34962},{"buffer":0,"byteLength":1752,"byteOffset":855064,"target":34963},{"buffer":0,"byteLength":7008,"byteOffset":856816,"target":34962},{"buffer":0,"byteLength":7008,"byteOffset":863824,"target":34962},{"buffer":0,"byteLength":4672,"byteOffset":870832,"target":34962}],"buffers":[{"byteLength":875504,"uri":"SM_Hous_24_A.bin"}],"images":[{"name":"Polygon_Texture_vol2","uri":"../Textures/Polygon_Texture_vol2.png"},{"name":"Polygon_Camping_Texture_vol2.0","uri":"Polygon_Camping_Texture_vol2.0.jpg"}],"materials":[{"alphaMode":"OPAQUE","doubleSided":false,"extras":{"fromFBX":{"isTruePBR":false,"shadingModel":"Phong"}},"name":"Material","pbrMetallicRoughness":{"baseColorFactor":[1,1,1,1],"baseColorTexture":{"index":0,"texCoord":0},"metallicFactor":0.400000005960464,"roughnessFactor":0.272165536880493}},{"alphaMode":"OPAQUE","doubleSided":false,"extras":{"fromFBX":{"isTruePBR":false,"shadingModel":"Phong"}},"name":"Glass","pbrMetallicRoughness":{"baseColorFactor":[1,1,1,1],"baseColorTexture":{"index":1,"texCoord":0},"metallicFactor":0.400000005960464,"roughnessFactor":0.272165536880493}}],"meshes":[{"name":"SM_Hous_24_A","primitives":[{"attributes":{"NORMAL":2,"POSITION":1,"TEXCOORD_0":3},"indices":0,"material":0,"mode":4},{"attributes":{"NORMAL":6,"POSITION":5,"TEXCOORD_0":7},"indices":4,"material":1,"mode":4}]}],"nodes":[{"mesh":0,"name":"SM_Hous_24_A","rotation":[0,0,0,1],"scale":[1,1,1],"translation":[156.026824951172,0,0]}],"samplers":[{}],"scene":0,"scenes":[{"name":"Root Scene","nodes":[0]}],"textures":[{"name":"base_color_texture","sampler":0,"source":0},{"name":"base_color_texture","sampler":0,"source":1}]}