{"accessors":[{"bufferView":0,"byteOffset":0,"componentType":5123,"count":34266,"type":"SCALAR"},{"bufferView":1,"byteOffset":0,"componentType":5126,"count":21464,"max":[3.32830953598022,6.70916414260864,3.5888340473175],"min":[-3.32830953598022,0.000000382931574449685,-3.58883476257324],"type":"VEC3"},{"bufferView":2,"byteOffset":0,"componentType":5126,"count":21464,"type":"VEC3"},{"bufferView":3,"byteOffset":0,"componentType":5126,"count":21464,"type":"VEC2"},{"bufferView":4,"byteOffset":0,"componentType":5123,"count":336,"type":"SCALAR"},{"bufferView":5,"byteOffset":0,"componentType":5126,"count":208,"max":[2.63927507400513,4.23693323135376,2.63927388191223],"min":[-2.63927268981934,3.41241049766541,-2.63927412033081],"type":"VEC3"},{"bufferView":6,"byteOffset":0,"componentType":5126,"count":208,"type":"VEC3"},{"bufferView":7,"byteOffset":0,"componentType":5126,"count":208,"type":"VEC2"}],"asset":{"generator":"FBX2glTF v0.13.1","version":"2.0"},"bufferViews":[{"buffer":0,"byteLength":68532,"byteOffset":0,"target":34963},{"buffer":0,"byteLength":257568,"byteOffset":68532,"target":34962},{"buffer":0,"byteLength":257568,"byteOffset":326100,"target":34962},{"buffer":0,"byteLength":171712,"byteOffset":583668,"target":34962},{"buffer":0,"byteLength":672,"byteOffset":755380,"target":34963},{"buffer":0,"byteLength":2496,"byteOffset":756052,"target":34962},{"buffer":0,"byteLength":2496,"byteOffset":758548,"target":34962},{"buffer":0,"byteLength":1664,"byteOffset":761044,"target":34962}],"buffers":[{"byteLength":762708,"uri":"SM_Hous_23_B.bin"}],"images":[{"name":"Polygon_Texture_vol2","uri":"../Textures/Polygon_Texture_vol2.png"},{"name":"Polygon_Camping_Texture_vol2.0","uri":"Polygon_Camping_Texture_vol2.0.jpg"}],"materials":[{"alphaMode":"OPAQUE","doubleSided":false,"extras":{"fromFBX":{"isTruePBR":false,"shadingModel":"Phong"}},"name":"Material","pbrMetallicRoughness":{"baseColorFactor":[1,1,1,1],"baseColorTexture":{"index":0,"texCoord":0},"metallicFactor":0.400000005960464,"roughnessFactor":0.272165536880493}},{"alphaMode":"OPAQUE","doubleSided":false,"extras":{"fromFBX":{"isTruePBR":false,"shadingModel":"Phong"}},"name":"Glass","pbrMetallicRoughness":{"baseColorFactor":[1,1,1,1],"baseColorTexture":{"index":1,"texCoord":0},"metallicFactor":0.400000005960464,"roughnessFactor":0.272165536880493}}],"meshes":[{"name":"SM_Hous_23_B","primitives":[{"attributes":{"NORMAL":2,"POSITION":1,"TEXCOORD_0":3},"indices":0,"material":0,"mode":4},{"attributes":{"NORMAL":6,"POSITION":5,"TEXCOORD_0":7},"indices":4,"material":1,"mode":4}]}],"nodes":[{"mesh":0,"name":"SM_Hous_23_B","rotation":[0,0,0,1],"scale":[1,1,1],"translation":[165.094055175781,-0.00000011920929,-48.8615074157715]}],"samplers":[{}],"scene":0,"scenes":[{"name":"Root Scene","nodes":[0]}],"textures":[{"name":"base_color_texture","sampler":0,"source":0},{"name":"base_color_texture","sampler":0,"source":1}]}