{"accessors":[{"bufferView":0,"byteOffset":0,"componentType":5123,"count":10020,"type":"SCALAR"},{"bufferView":1,"byteOffset":0,"componentType":5126,"count":6473,"max":[6.62107038497925,7.52170133590698,4.67641687393188],"min":[-7.08577251434326,-0.00000005194332,-8.97546863555908],"type":"VEC3"},{"bufferView":2,"byteOffset":0,"componentType":5126,"count":6473,"type":"VEC3"},{"bufferView":3,"byteOffset":0,"componentType":5126,"count":6473,"type":"VEC2"}],"asset":{"generator":"FBX2glTF v0.13.1","version":"2.0"},"bufferViews":[{"buffer":0,"byteLength":20040,"byteOffset":0,"target":34963},{"buffer":0,"byteLength":77676,"byteOffset":20040,"target":34962},{"buffer":0,"byteLength":77676,"byteOffset":97716,"target":34962},{"buffer":0,"byteLength":51784,"byteOffset":175392,"target":34962}],"buffers":[{"byteLength":227176,"uri":"SM_Hous_15_B.bin"}],"images":[{"name":"Polygon_Texture_vol2","uri":"../Textures/Polygon_Texture_vol2.png"}],"materials":[{"alphaMode":"OPAQUE","doubleSided":false,"extras":{"fromFBX":{"isTruePBR":false,"shadingModel":"Phong"}},"name":"Material","pbrMetallicRoughness":{"baseColorFactor":[1,1,1,1],"baseColorTexture":{"index":0,"texCoord":0},"metallicFactor":0.400000005960464,"roughnessFactor":0.272165536880493}}],"meshes":[{"name":"SM_Hous_15_B","primitives":[{"attributes":{"NORMAL":2,"POSITION":1,"TEXCOORD_0":3},"indices":0,"material":0,"mode":4}]}],"nodes":[{"mesh":0,"name":"SM_Hous_15_B","rotation":[0,0,0,1],"scale":[1,1,1],"translation":[277.735900878906,0,-57.9192123413086]}],"samplers":[{}],"scene":0,"scenes":[{"name":"Root Scene","nodes":[0]}],"textures":[{"name":"base_color_texture","sampler":0,"source":0}]}