{"accessors":[{"bufferView":0,"byteOffset":0,"componentType":5123,"count":34350,"type":"SCALAR"},{"bufferView":1,"byteOffset":0,"componentType":5126,"count":21516,"max":[3.32830953598022,6.70916414260864,3.5888340473175],"min":[-3.32830953598022,0.000000382931574449685,-3.58883476257324],"type":"VEC3"},{"bufferView":2,"byteOffset":0,"componentType":5126,"count":21516,"type":"VEC3"},{"bufferView":3,"byteOffset":0,"componentType":5126,"count":21516,"type":"VEC2"},{"bufferView":4,"byteOffset":0,"componentType":5123,"count":252,"type":"SCALAR"},{"bufferView":5,"byteOffset":0,"componentType":5126,"count":156,"max":[2.63927507400513,4.23693323135376,2.63927388191223],"min":[-1.66299021244049,3.41241049766541,-2.63927412033081],"type":"VEC3"},{"bufferView":6,"byteOffset":0,"componentType":5126,"count":156,"type":"VEC3"},{"bufferView":7,"byteOffset":0,"componentType":5126,"count":156,"type":"VEC2"}],"asset":{"generator":"FBX2glTF v0.13.1","version":"2.0"},"bufferViews":[{"buffer":0,"byteLength":68700,"byteOffset":0,"target":34963},{"buffer":0,"byteLength":258192,"byteOffset":68700,"target":34962},{"buffer":0,"byteLength":258192,"byteOffset":326892,"target":34962},{"buffer":0,"byteLength":172128,"byteOffset":585084,"target":34962},{"buffer":0,"byteLength":504,"byteOffset":757212,"target":34963},{"buffer":0,"byteLength":1872,"byteOffset":757716,"target":34962},{"buffer":0,"byteLength":1872,"byteOffset":759588,"target":34962},{"buffer":0,"byteLength":1248,"byteOffset":761460,"target":34962}],"buffers":[{"byteLength":762708,"uri":"SM_Hous_23_A.bin"}],"images":[{"name":"Polygon_Texture_vol2","uri":"../Textures/Polygon_Texture_vol2.png"},{"name":"Polygon_Camping_Texture_vol2.0","uri":"Polygon_Camping_Texture_vol2.0.jpg"}],"materials":[{"alphaMode":"OPAQUE","doubleSided":false,"extras":{"fromFBX":{"isTruePBR":false,"shadingModel":"Phong"}},"name":"Material","pbrMetallicRoughness":{"baseColorFactor":[1,1,1,1],"baseColorTexture":{"index":0,"texCoord":0},"metallicFactor":0.400000005960464,"roughnessFactor":0.272165536880493}},{"alphaMode":"OPAQUE","doubleSided":false,"extras":{"fromFBX":{"isTruePBR":false,"shadingModel":"Phong"}},"name":"Glass","pbrMetallicRoughness":{"baseColorFactor":[1,1,1,1],"baseColorTexture":{"index":1,"texCoord":0},"metallicFactor":0.400000005960464,"roughnessFactor":0.272165536880493}}],"meshes":[{"name":"SM_Hous_23_A","primitives":[{"attributes":{"NORMAL":2,"POSITION":1,"TEXCOORD_0":3},"indices":0,"material":0,"mode":4},{"attributes":{"NORMAL":6,"POSITION":5,"TEXCOORD_0":7},"indices":4,"material":1,"mode":4}]}],"nodes":[{"mesh":0,"name":"SM_Hous_23_A","rotation":[0,0,0,1],"scale":[1,1,1],"translation":[165.662353515625,-0.00000011920929,1.69343745708466]}],"samplers":[{}],"scene":0,"scenes":[{"name":"Root Scene","nodes":[0]}],"textures":[{"name":"base_color_texture","sampler":0,"source":0},{"name":"base_color_texture","sampler":0,"source":1}]}