{"accessors":[{"bufferView":0,"byteOffset":0,"componentType":5123,"count":20334,"type":"SCALAR"},{"bufferView":1,"byteOffset":0,"componentType":5126,"count":12367,"max":[2.7382173538208,7.93776369094849,5.05915975570679],"min":[-2.73827052116394,-0.1077264547348,-4.45858097076416],"type":"VEC3"},{"bufferView":2,"byteOffset":0,"componentType":5126,"count":12367,"type":"VEC3"},{"bufferView":3,"byteOffset":0,"componentType":5126,"count":12367,"type":"VEC2"},{"bufferView":4,"byteOffset":0,"componentType":5123,"count":144,"type":"SCALAR"},{"bufferView":5,"byteOffset":0,"componentType":5126,"count":60,"max":[1.53764510154724,5.0564022064209,3.88179922103882],"min":[-1.53769814968109,1.2932904958725,-3.8817994594574],"type":"VEC3"},{"bufferView":6,"byteOffset":0,"componentType":5126,"count":60,"type":"VEC3"},{"bufferView":7,"byteOffset":0,"componentType":5126,"count":60,"type":"VEC2"}],"asset":{"generator":"FBX2glTF v0.13.1","version":"2.0"},"bufferViews":[{"buffer":0,"byteLength":40668,"byteOffset":0,"target":34963},{"buffer":0,"byteLength":148404,"byteOffset":40668,"target":34962},{"buffer":0,"byteLength":148404,"byteOffset":189072,"target":34962},{"buffer":0,"byteLength":98936,"byteOffset":337476,"target":34962},{"buffer":0,"byteLength":288,"byteOffset":436412,"target":34963},{"buffer":0,"byteLength":720,"byteOffset":436700,"target":34962},{"buffer":0,"byteLength":720,"byteOffset":437420,"target":34962},{"buffer":0,"byteLength":480,"byteOffset":438140,"target":34962}],"buffers":[{"byteLength":438620,"uri":"SM_Hous_09_A.bin"}],"images":[{"name":"Polygon_Texture_vol2","uri":"../Textures/Polygon_Texture_vol2.png"},{"name":"Polygon_Camping_Texture_vol2.0","uri":"Polygon_Camping_Texture_vol2.0.jpg"}],"materials":[{"alphaMode":"OPAQUE","doubleSided":false,"extras":{"fromFBX":{"isTruePBR":false,"shadingModel":"Phong"}},"name":"Material","pbrMetallicRoughness":{"baseColorFactor":[1,1,1,1],"baseColorTexture":{"index":0,"texCoord":0},"metallicFactor":0.400000005960464,"roughnessFactor":0.272165536880493}},{"alphaMode":"OPAQUE","doubleSided":false,"extras":{"fromFBX":{"isTruePBR":false,"shadingModel":"Phong"}},"name":"Glass","pbrMetallicRoughness":{"baseColorFactor":[1,1,1,1],"baseColorTexture":{"index":1,"texCoord":0},"metallicFactor":0.400000005960464,"roughnessFactor":0.272165536880493}}],"meshes":[{"name":"SM_Hous_09_A","primitives":[{"attributes":{"NORMAL":2,"POSITION":1,"TEXCOORD_0":3},"indices":0,"material":0,"mode":4},{"attributes":{"NORMAL":6,"POSITION":5,"TEXCOORD_0":7},"indices":4,"material":1,"mode":4}]}],"nodes":[{"mesh":0,"name":"SM_Hous_09_A","rotation":[0,0,0,1],"scale":[1,1,1],"translation":[335.868286132812,0.00508034229278564,-0.25911593437195]}],"samplers":[{}],"scene":0,"scenes":[{"name":"Root Scene","nodes":[0]}],"textures":[{"name":"base_color_texture","sampler":0,"source":0},{"name":"base_color_texture","sampler":0,"source":1}]}