{"accessors":[{"bufferView":0,"byteOffset":0,"componentType":5123,"count":11448,"type":"SCALAR"},{"bufferView":1,"byteOffset":0,"componentType":5126,"count":7410,"max":[3.11256575584412,16.3933200836182,3.74776816368103],"min":[-3.11256575584412,0,-3.11256623268127],"type":"VEC3"},{"bufferView":2,"byteOffset":0,"componentType":5126,"count":7410,"type":"VEC3"},{"bufferView":3,"byteOffset":0,"componentType":5126,"count":7410,"type":"VEC2"},{"bufferView":4,"byteOffset":0,"componentType":5123,"count":36,"type":"SCALAR"},{"bufferView":5,"byteOffset":0,"componentType":5126,"count":24,"max":[0.530217587947845,10.8887777328491,2.06145215034485],"min":[-0.53021758794785,9.8306713104248,-2.06145262718201],"type":"VEC3"},{"bufferView":6,"byteOffset":0,"componentType":5126,"count":24,"type":"VEC3"},{"bufferView":7,"byteOffset":0,"componentType":5126,"count":24,"type":"VEC2"}],"asset":{"generator":"FBX2glTF v0.13.1","version":"2.0"},"bufferViews":[{"buffer":0,"byteLength":22896,"byteOffset":0,"target":34963},{"buffer":0,"byteLength":88920,"byteOffset":22896,"target":34962},{"buffer":0,"byteLength":88920,"byteOffset":111816,"target":34962},{"buffer":0,"byteLength":59280,"byteOffset":200736,"target":34962},{"buffer":0,"byteLength":72,"byteOffset":260016,"target":34963},{"buffer":0,"byteLength":288,"byteOffset":260088,"target":34962},{"buffer":0,"byteLength":288,"byteOffset":260376,"target":34962},{"buffer":0,"byteLength":192,"byteOffset":260664,"target":34962}],"buffers":[{"byteLength":260856,"uri":"SM_Hous_18_B.bin"}],"images":[{"name":"Polygon_Texture_vol2","uri":"../Textures/Polygon_Texture_vol2.png"},{"name":"Polygon_Camping_Texture_vol2.0","uri":"Polygon_Camping_Texture_vol2.0.jpg"}],"materials":[{"alphaMode":"OPAQUE","doubleSided":false,"extras":{"fromFBX":{"isTruePBR":false,"shadingModel":"Phong"}},"name":"Material","pbrMetallicRoughness":{"baseColorFactor":[1,1,1,1],"baseColorTexture":{"index":0,"texCoord":0},"metallicFactor":0.400000005960464,"roughnessFactor":0.272165536880493}},{"alphaMode":"OPAQUE","doubleSided":false,"extras":{"fromFBX":{"isTruePBR":false,"shadingModel":"Phong"}},"name":"Glass","pbrMetallicRoughness":{"baseColorFactor":[1,1,1,1],"baseColorTexture":{"index":1,"texCoord":0},"metallicFactor":0.400000005960464,"roughnessFactor":0.272165536880493}}],"meshes":[{"name":"SM_Hous_18_B","primitives":[{"attributes":{"NORMAL":2,"POSITION":1,"TEXCOORD_0":3},"indices":0,"material":0,"mode":4},{"attributes":{"NORMAL":6,"POSITION":5,"TEXCOORD_0":7},"indices":4,"material":1,"mode":4}]}],"nodes":[{"mesh":0,"name":"SM_Hous_18_B","rotation":[0,0,0,1],"scale":[1,1,1],"translation":[247.534271240234,0,-59.8883399963379]}],"samplers":[{}],"scene":0,"scenes":[{"name":"Root Scene","nodes":[0]}],"textures":[{"name":"base_color_texture","sampler":0,"source":0},{"name":"base_color_texture","sampler":0,"source":1}]}