{"accessors":[{"bufferView":0,"byteOffset":0,"componentType":5123,"count":13530,"type":"SCALAR"},{"bufferView":1,"byteOffset":0,"componentType":5126,"count":8685,"max":[4.27651214599609,6.18258047103882,3.37067675590515],"min":[-4.27651214599609,-0.00000009041772,-2.69858312606812],"type":"VEC3"},{"bufferView":2,"byteOffset":0,"componentType":5126,"count":8685,"type":"VEC3"},{"bufferView":3,"byteOffset":0,"componentType":5126,"count":8685,"type":"VEC2"},{"bufferView":4,"byteOffset":0,"componentType":5123,"count":48,"type":"SCALAR"},{"bufferView":5,"byteOffset":0,"componentType":5126,"count":20,"max":[3.18316578865051,2.40991306304932,0.321961939334869],"min":[-3.18316555023193,1.59484910964966,-0.32196193933487],"type":"VEC3"},{"bufferView":6,"byteOffset":0,"componentType":5126,"count":20,"type":"VEC3"},{"bufferView":7,"byteOffset":0,"componentType":5126,"count":20,"type":"VEC2"}],"asset":{"generator":"FBX2glTF v0.13.1","version":"2.0"},"bufferViews":[{"buffer":0,"byteLength":27060,"byteOffset":0,"target":34963},{"buffer":0,"byteLength":104220,"byteOffset":27060,"target":34962},{"buffer":0,"byteLength":104220,"byteOffset":131280,"target":34962},{"buffer":0,"byteLength":69480,"byteOffset":235500,"target":34962},{"buffer":0,"byteLength":96,"byteOffset":304980,"target":34963},{"buffer":0,"byteLength":240,"byteOffset":305076,"target":34962},{"buffer":0,"byteLength":240,"byteOffset":305316,"target":34962},{"buffer":0,"byteLength":160,"byteOffset":305556,"target":34962}],"buffers":[{"byteLength":305716,"uri":"SM_Hous_17_A.bin"}],"images":[{"name":"Polygon_Texture_vol2","uri":"../Textures/Polygon_Texture_vol2.png"},{"name":"Polygon_Camping_Texture_vol2.0","uri":"Polygon_Camping_Texture_vol2.0.jpg"}],"materials":[{"alphaMode":"OPAQUE","doubleSided":false,"extras":{"fromFBX":{"isTruePBR":false,"shadingModel":"Phong"}},"name":"Material","pbrMetallicRoughness":{"baseColorFactor":[1,1,1,1],"baseColorTexture":{"index":0,"texCoord":0},"metallicFactor":0.400000005960464,"roughnessFactor":0.272165536880493}},{"alphaMode":"OPAQUE","doubleSided":false,"extras":{"fromFBX":{"isTruePBR":false,"shadingModel":"Phong"}},"name":"Glass","pbrMetallicRoughness":{"baseColorFactor":[1,1,1,1],"baseColorTexture":{"index":1,"texCoord":0},"metallicFactor":0.400000005960464,"roughnessFactor":0.272165536880493}}],"meshes":[{"name":"SM_Hous_17_A","primitives":[{"attributes":{"NORMAL":2,"POSITION":1,"TEXCOORD_0":3},"indices":0,"material":0,"mode":4},{"attributes":{"NORMAL":6,"POSITION":5,"TEXCOORD_0":7},"indices":4,"material":1,"mode":4}]}],"nodes":[{"mesh":0,"name":"SM_Hous_17_A","rotation":[0,0,0,1],"scale":[1,1,1],"translation":[256.124389648438,0,0.466474533081055]}],"samplers":[{}],"scene":0,"scenes":[{"name":"Root Scene","nodes":[0]}],"textures":[{"name":"base_color_texture","sampler":0,"source":0},{"name":"base_color_texture","sampler":0,"source":1}]}