{"accessors":[{"bufferView":0,"byteOffset":0,"componentType":5123,"count":35136,"type":"SCALAR"},{"bufferView":1,"byteOffset":0,"componentType":5126,"count":22940,"max":[4.21333789825439,9.13327217102051,5.84582281112671],"min":[-4.21333789825439,-0.03778907284141,-5.84582281112671],"type":"VEC3"},{"bufferView":2,"byteOffset":0,"componentType":5126,"count":22940,"type":"VEC3"},{"bufferView":3,"byteOffset":0,"componentType":5126,"count":22940,"type":"VEC2"},{"bufferView":4,"byteOffset":0,"componentType":5123,"count":312,"type":"SCALAR"},{"bufferView":5,"byteOffset":0,"componentType":5126,"count":136,"max":[3.06394338607788,5.89912700653076,4.36640977859497],"min":[-3.069495677948,1.14383816719055,-4.36640977859497],"type":"VEC3"},{"bufferView":6,"byteOffset":0,"componentType":5126,"count":136,"type":"VEC3"},{"bufferView":7,"byteOffset":0,"componentType":5126,"count":136,"type":"VEC2"}],"asset":{"generator":"FBX2glTF v0.13.1","version":"2.0"},"bufferViews":[{"buffer":0,"byteLength":70272,"byteOffset":0,"target":34963},{"buffer":0,"byteLength":275280,"byteOffset":70272,"target":34962},{"buffer":0,"byteLength":275280,"byteOffset":345552,"target":34962},{"buffer":0,"byteLength":183520,"byteOffset":620832,"target":34962},{"buffer":0,"byteLength":624,"byteOffset":804352,"target":34963},{"buffer":0,"byteLength":1632,"byteOffset":804976,"target":34962},{"buffer":0,"byteLength":1632,"byteOffset":806608,"target":34962},{"buffer":0,"byteLength":1088,"byteOffset":808240,"target":34962}],"buffers":[{"byteLength":809328,"uri":"SM_Hous_11_B.bin"}],"images":[{"name":"Polygon_Texture_vol2","uri":"../Textures/Polygon_Texture_vol2.png"},{"name":"Polygon_Camping_Texture_vol2.0","uri":"Polygon_Camping_Texture_vol2.0.jpg"}],"materials":[{"alphaMode":"OPAQUE","doubleSided":false,"extras":{"fromFBX":{"isTruePBR":false,"shadingModel":"Phong"}},"name":"Material","pbrMetallicRoughness":{"baseColorFactor":[1,1,1,1],"baseColorTexture":{"index":0,"texCoord":0},"metallicFactor":0.400000005960464,"roughnessFactor":0.272165536880493}},{"alphaMode":"OPAQUE","doubleSided":false,"extras":{"fromFBX":{"isTruePBR":false,"shadingModel":"Phong"}},"name":"Glass","pbrMetallicRoughness":{"baseColorFactor":[1,1,1,1],"baseColorTexture":{"index":1,"texCoord":0},"metallicFactor":0.400000005960464,"roughnessFactor":0.272165536880493}}],"meshes":[{"name":"SM_Hous_11_B","primitives":[{"attributes":{"NORMAL":2,"POSITION":1,"TEXCOORD_0":3},"indices":0,"material":0,"mode":4},{"attributes":{"NORMAL":6,"POSITION":5,"TEXCOORD_0":7},"indices":4,"material":1,"mode":4}]}],"nodes":[{"mesh":0,"name":"SM_Hous_11_B","rotation":[0,0,0,1],"scale":[1,1,1],"translation":[320.555236816406,0,-59.0690116882324]}],"samplers":[{}],"scene":0,"scenes":[{"name":"Root Scene","nodes":[0]}],"textures":[{"name":"base_color_texture","sampler":0,"source":0},{"name":"base_color_texture","sampler":0,"source":1}]}