{"accessors":[{"bufferView":0,"byteOffset":0,"componentType":5123,"count":42270,"type":"SCALAR"},{"bufferView":1,"byteOffset":0,"componentType":5126,"count":25580,"max":[3.48196458816528,15.9649524688721,4.048668384552],"min":[-3.63203048706055,-0.00000003163377,-5.14310789108276],"type":"VEC3"},{"bufferView":2,"byteOffset":0,"componentType":5126,"count":25580,"type":"VEC3"},{"bufferView":3,"byteOffset":0,"componentType":5126,"count":25580,"type":"VEC2"},{"bufferView":4,"byteOffset":0,"componentType":5123,"count":282,"type":"SCALAR"},{"bufferView":5,"byteOffset":0,"componentType":5126,"count":116,"max":[2.95746302604675,10.1352510452271,3.49812436103821],"min":[-2.709468126297,0.989192545413971,-3.91226482391357],"type":"VEC3"},{"bufferView":6,"byteOffset":0,"componentType":5126,"count":116,"type":"VEC3"},{"bufferView":7,"byteOffset":0,"componentType":5126,"count":116,"type":"VEC2"}],"asset":{"generator":"FBX2glTF v0.13.1","version":"2.0"},"bufferViews":[{"buffer":0,"byteLength":84540,"byteOffset":0,"target":34963},{"buffer":0,"byteLength":306960,"byteOffset":84540,"target":34962},{"buffer":0,"byteLength":306960,"byteOffset":391500,"target":34962},{"buffer":0,"byteLength":204640,"byteOffset":698460,"target":34962},{"buffer":0,"byteLength":564,"byteOffset":903100,"target":34963},{"buffer":0,"byteLength":1392,"byteOffset":903664,"target":34962},{"buffer":0,"byteLength":1392,"byteOffset":905056,"target":34962},{"buffer":0,"byteLength":928,"byteOffset":906448,"target":34962}],"buffers":[{"byteLength":907376,"uri":"SM_Hous_10_A.bin"}],"images":[{"name":"Polygon_Texture_vol2","uri":"../Textures/Polygon_Texture_vol2.png"},{"name":"Polygon_Camping_Texture_vol2.0","uri":"Polygon_Camping_Texture_vol2.0.jpg"}],"materials":[{"alphaMode":"OPAQUE","doubleSided":false,"extras":{"fromFBX":{"isTruePBR":false,"shadingModel":"Phong"}},"name":"Material","pbrMetallicRoughness":{"baseColorFactor":[1,1,1,1],"baseColorTexture":{"index":0,"texCoord":0},"metallicFactor":0.400000005960464,"roughnessFactor":0.272165536880493}},{"alphaMode":"OPAQUE","doubleSided":false,"extras":{"fromFBX":{"isTruePBR":false,"shadingModel":"Phong"}},"name":"Glass","pbrMetallicRoughness":{"baseColorFactor":[1,1,1,1],"baseColorTexture":{"index":1,"texCoord":0},"metallicFactor":0.400000005960464,"roughnessFactor":0.272165536880493}}],"meshes":[{"name":"SM_Hous_10_A","primitives":[{"attributes":{"NORMAL":2,"POSITION":1,"TEXCOORD_0":3},"indices":0,"material":0,"mode":4},{"attributes":{"NORMAL":6,"POSITION":5,"TEXCOORD_0":7},"indices":4,"material":1,"mode":4}]}],"nodes":[{"mesh":0,"name":"SM_Hous_10_A","rotation":[0,0,0,1],"scale":[1,1,1],"translation":[329.075805664062,-0.22338910400868,0.502349853515625]}],"samplers":[{}],"scene":0,"scenes":[{"name":"Root Scene","nodes":[0]}],"textures":[{"name":"base_color_texture","sampler":0,"source":0},{"name":"base_color_texture","sampler":0,"source":1}]}