{"accessors":[{"bufferView":0,"byteOffset":0,"componentType":5123,"count":32334,"type":"SCALAR"},{"bufferView":1,"byteOffset":0,"componentType":5126,"count":20176,"max":[5.56835794448853,6.72173881530762,7.23086309432983],"min":[-6.74036836624146,-0.04546195268631,-8.33156776428223],"type":"VEC3"},{"bufferView":2,"byteOffset":0,"componentType":5126,"count":20176,"type":"VEC3"},{"bufferView":3,"byteOffset":0,"componentType":5126,"count":20176,"type":"VEC2"},{"bufferView":4,"byteOffset":0,"componentType":5123,"count":288,"type":"SCALAR"},{"bufferView":5,"byteOffset":0,"componentType":5126,"count":192,"max":[4.32045936584473,4.24708414077759,4.39210939407349],"min":[-5.12621927261353,0.797319769859314,-5.4257550239563],"type":"VEC3"},{"bufferView":6,"byteOffset":0,"componentType":5126,"count":192,"type":"VEC3"},{"bufferView":7,"byteOffset":0,"componentType":5126,"count":192,"type":"VEC2"}],"asset":{"generator":"FBX2glTF v0.13.1","version":"2.0"},"bufferViews":[{"buffer":0,"byteLength":64668,"byteOffset":0,"target":34963},{"buffer":0,"byteLength":242112,"byteOffset":64668,"target":34962},{"buffer":0,"byteLength":242112,"byteOffset":306780,"target":34962},{"buffer":0,"byteLength":161408,"byteOffset":548892,"target":34962},{"buffer":0,"byteLength":576,"byteOffset":710300,"target":34963},{"buffer":0,"byteLength":2304,"byteOffset":710876,"target":34962},{"buffer":0,"byteLength":2304,"byteOffset":713180,"target":34962},{"buffer":0,"byteLength":1536,"byteOffset":715484,"target":34962}],"buffers":[{"byteLength":717020,"uri":"SM_Hous_22_A.bin"}],"images":[{"name":"Polygon_Texture_vol2","uri":"../Textures/Polygon_Texture_vol2.png"},{"name":"Polygon_Camping_Texture_vol2.0","uri":"Polygon_Camping_Texture_vol2.0.jpg"}],"materials":[{"alphaMode":"OPAQUE","doubleSided":false,"extras":{"fromFBX":{"isTruePBR":false,"shadingModel":"Phong"}},"name":"Material","pbrMetallicRoughness":{"baseColorFactor":[1,1,1,1],"baseColorTexture":{"index":0,"texCoord":0},"metallicFactor":0.400000005960464,"roughnessFactor":0.272165536880493}},{"alphaMode":"OPAQUE","doubleSided":false,"extras":{"fromFBX":{"isTruePBR":false,"shadingModel":"Phong"}},"name":"Glass","pbrMetallicRoughness":{"baseColorFactor":[1,1,1,1],"baseColorTexture":{"index":1,"texCoord":0},"metallicFactor":0.400000005960464,"roughnessFactor":0.272165536880493}}],"meshes":[{"name":"SM_Hous_22_A","primitives":[{"attributes":{"NORMAL":2,"POSITION":1,"TEXCOORD_0":3},"indices":0,"material":0,"mode":4},{"attributes":{"NORMAL":6,"POSITION":5,"TEXCOORD_0":7},"indices":4,"material":1,"mode":4}]}],"nodes":[{"mesh":0,"name":"SM_Hous_22_A","rotation":[0,0,0,1],"scale":[1,1,1],"translation":[176.864883422852,0,0.620181858539581]}],"samplers":[{}],"scene":0,"scenes":[{"name":"Root Scene","nodes":[0]}],"textures":[{"name":"base_color_texture","sampler":0,"source":0},{"name":"base_color_texture","sampler":0,"source":1}]}