{"accessors":[{"bufferView":0,"byteOffset":0,"componentType":5123,"count":2148,"type":"SCALAR"},{"bufferView":1,"byteOffset":0,"componentType":5126,"count":1360,"max":[0.317870825529099,2.35683465003967,0.703752219676971],"min":[-0.31920710206032,0,-0.33739078044891],"type":"VEC3"},{"bufferView":2,"byteOffset":0,"componentType":5126,"count":1360,"type":"VEC3"},{"bufferView":3,"byteOffset":0,"componentType":5126,"count":1360,"type":"VEC2"},{"bufferView":4,"byteOffset":0,"componentType":5123,"count":24,"type":"SCALAR"},{"bufferView":5,"byteOffset":0,"componentType":5126,"count":16,"max":[0.0695634558796883,1.93514668941498,0.641834914684296],"min":[-0.07491293549538,1.74681603908539,0.497289270162582],"type":"VEC3"},{"bufferView":6,"byteOffset":0,"componentType":5126,"count":16,"type":"VEC3"},{"bufferView":7,"byteOffset":0,"componentType":5126,"count":16,"type":"VEC2"}],"asset":{"generator":"FBX2glTF v0.13.1","version":"2.0"},"bufferViews":[{"buffer":0,"byteLength":4296,"byteOffset":0,"target":34963},{"buffer":0,"byteLength":16320,"byteOffset":4296,"target":34962},{"buffer":0,"byteLength":16320,"byteOffset":20616,"target":34962},{"buffer":0,"byteLength":10880,"byteOffset":36936,"target":34962},{"buffer":0,"byteLength":48,"byteOffset":47816,"target":34963},{"buffer":0,"byteLength":192,"byteOffset":47864,"target":34962},{"buffer":0,"byteLength":192,"byteOffset":48056,"target":34962},{"buffer":0,"byteLength":128,"byteOffset":48248,"target":34962}],"buffers":[{"byteLength":48376,"uri":"SM_Lamp_01_A.bin"}],"images":[{"name":"Polygon_Texture_vol2","uri":"../Textures/Polygon_Texture_vol2.png"},{"name":"Polygon_Camping_Texture_vol2.0","uri":"Polygon_Camping_Texture_vol2.0.jpg"}],"materials":[{"alphaMode":"OPAQUE","doubleSided":false,"extras":{"fromFBX":{"isTruePBR":false,"shadingModel":"Phong"}},"name":"Material","pbrMetallicRoughness":{"baseColorFactor":[1,1,1,1],"baseColorTexture":{"index":0,"texCoord":0},"metallicFactor":0.400000005960464,"roughnessFactor":0.272165536880493}},{"alphaMode":"OPAQUE","doubleSided":false,"extras":{"fromFBX":{"isTruePBR":false,"shadingModel":"Phong"}},"name":"Glass","pbrMetallicRoughness":{"baseColorFactor":[1,1,1,1],"baseColorTexture":{"index":1,"texCoord":0},"metallicFactor":0.400000005960464,"roughnessFactor":0.272165536880493}}],"meshes":[{"name":"SM_Lamp_01_A","primitives":[{"attributes":{"NORMAL":2,"POSITION":1,"TEXCOORD_0":3},"indices":0,"material":0,"mode":4},{"attributes":{"NORMAL":6,"POSITION":5,"TEXCOORD_0":7},"indices":4,"material":1,"mode":4}]}],"nodes":[{"mesh":0,"name":"SM_Lamp_01_A","rotation":[0,0,0,1],"scale":[1,1,1],"translation":[142.054931640625,0,0.899040341377258]}],"samplers":[{}],"scene":0,"scenes":[{"name":"Root Scene","nodes":[0]}],"textures":[{"name":"base_color_texture","sampler":0,"source":0},{"name":"base_color_texture","sampler":0,"source":1}]}