{"accessors":[{"bufferView":0,"byteOffset":0,"componentType":5123,"count":720,"type":"SCALAR"},{"bufferView":1,"byteOffset":0,"componentType":5126,"count":490,"max":[1.17315065860748,0.536469519138336,1.01608097553253],"min":[-1.3295886516571,0,-1.36028468608856],"type":"VEC3"},{"bufferView":2,"byteOffset":0,"componentType":5126,"count":490,"type":"VEC3"},{"bufferView":3,"byteOffset":0,"componentType":5126,"count":490,"type":"VEC2"}],"asset":{"generator":"FBX2glTF v0.13.1","version":"2.0"},"bufferViews":[{"buffer":0,"byteLength":1440,"byteOffset":0,"target":34963},{"buffer":0,"byteLength":5880,"byteOffset":1440,"target":34962},{"buffer":0,"byteLength":5880,"byteOffset":7320,"target":34962},{"buffer":0,"byteLength":3920,"byteOffset":13200,"target":34962}],"buffers":[{"byteLength":17120,"uri":"SM_Mushroom_01_A.bin"}],"images":[{"name":"Polygon_Texture_vol2","uri":"../Textures/Polygon_Texture_vol2.png"}],"materials":[{"alphaMode":"OPAQUE","doubleSided":false,"extras":{"fromFBX":{"isTruePBR":false,"shadingModel":"Phong"}},"name":"Material","pbrMetallicRoughness":{"baseColorFactor":[1,1,1,1],"baseColorTexture":{"index":0,"texCoord":0},"metallicFactor":0.400000005960464,"roughnessFactor":0.272165536880493}}],"meshes":[{"name":"SM_Mushroom_01_A","primitives":[{"attributes":{"NORMAL":2,"POSITION":1,"TEXCOORD_0":3},"indices":0,"material":0,"mode":4}]}],"nodes":[{"mesh":0,"name":"SM_Mushroom_01_A","rotation":[0,0,0,1],"scale":[1,1,1],"translation":[116.538688659668,0,-0.06048693880439]}],"samplers":[{}],"scene":0,"scenes":[{"name":"Root Scene","nodes":[0]}],"textures":[{"name":"base_color_texture","sampler":0,"source":0}]}