{"accessors":[{"bufferView":0,"byteOffset":0,"componentType":5123,"count":1746,"type":"SCALAR"},{"bufferView":1,"byteOffset":0,"componentType":5126,"count":1152,"max":[1.43581795692444,2.38634586334229,2.29164218902588],"min":[-1.98123800754547,-0.00000013080597,-1.6251962184906],"type":"VEC3"},{"bufferView":2,"byteOffset":0,"componentType":5126,"count":1152,"type":"VEC3"},{"bufferView":3,"byteOffset":0,"componentType":5126,"count":1152,"type":"VEC2"},{"bufferView":4,"byteOffset":0,"componentType":5123,"count":48,"type":"SCALAR"},{"bufferView":5,"byteOffset":0,"componentType":5126,"count":32,"max":[1.37194037437439,2.13865423202515,-0.67677837610245],"min":[-0.53860747814179,1.87860298156738,-1.08732712268829],"type":"VEC3"},{"bufferView":6,"byteOffset":0,"componentType":5126,"count":32,"type":"VEC3"},{"bufferView":7,"byteOffset":0,"componentType":5126,"count":32,"type":"VEC2"}],"asset":{"generator":"FBX2glTF v0.13.1","version":"2.0"},"bufferViews":[{"buffer":0,"byteLength":3492,"byteOffset":0,"target":34963},{"buffer":0,"byteLength":13824,"byteOffset":3492,"target":34962},{"buffer":0,"byteLength":13824,"byteOffset":17316,"target":34962},{"buffer":0,"byteLength":9216,"byteOffset":31140,"target":34962},{"buffer":0,"byteLength":96,"byteOffset":40356,"target":34963},{"buffer":0,"byteLength":384,"byteOffset":40452,"target":34962},{"buffer":0,"byteLength":384,"byteOffset":40836,"target":34962},{"buffer":0,"byteLength":256,"byteOffset":41220,"target":34962}],"buffers":[{"byteLength":41476,"uri":"SM_Pier_01_B.bin"}],"images":[{"name":"Polygon_Texture_vol2","uri":"../Textures/Polygon_Texture_vol2.png"},{"name":"Polygon_Camping_Texture_vol2.0","uri":"Polygon_Camping_Texture_vol2.0.jpg"}],"materials":[{"alphaMode":"OPAQUE","doubleSided":false,"extras":{"fromFBX":{"isTruePBR":false,"shadingModel":"Phong"}},"name":"Material","pbrMetallicRoughness":{"baseColorFactor":[1,1,1,1],"baseColorTexture":{"index":0,"texCoord":0},"metallicFactor":0.400000005960464,"roughnessFactor":0.272165536880493}},{"alphaMode":"OPAQUE","doubleSided":false,"extras":{"fromFBX":{"isTruePBR":false,"shadingModel":"Phong"}},"name":"Glass","pbrMetallicRoughness":{"baseColorFactor":[1,1,1,1],"baseColorTexture":{"index":1,"texCoord":0},"metallicFactor":0.400000005960464,"roughnessFactor":0.272165536880493}}],"meshes":[{"name":"SM_Pier_01_B","primitives":[{"attributes":{"NORMAL":2,"POSITION":1,"TEXCOORD_0":3},"indices":0,"material":0,"mode":4},{"attributes":{"NORMAL":6,"POSITION":5,"TEXCOORD_0":7},"indices":4,"material":1,"mode":4}]}],"nodes":[{"mesh":0,"name":"SM_Pier_01_B","rotation":[0,0,0,1],"scale":[1,1,1],"translation":[74.1738433837891,-0.27796971797943,-50.8169364929199]}],"samplers":[{}],"scene":0,"scenes":[{"name":"Root Scene","nodes":[0]}],"textures":[{"name":"base_color_texture","sampler":0,"source":0},{"name":"base_color_texture","sampler":0,"source":1}]}