{"accessors":[{"bufferView":0,"byteOffset":0,"componentType":5123,"count":498,"type":"SCALAR"},{"bufferView":1,"byteOffset":0,"componentType":5126,"count":279,"max":[3.99700856208801,0.29662674665451,4.00112771987915],"min":[-4.00299072265625,-0.00543641299009,-3.99887228012085],"type":"VEC3"},{"bufferView":2,"byteOffset":0,"componentType":5126,"count":279,"type":"VEC3"},{"bufferView":3,"byteOffset":0,"componentType":5126,"count":279,"type":"VEC2"}],"asset":{"generator":"FBX2glTF v0.13.1","version":"2.0"},"bufferViews":[{"buffer":0,"byteLength":996,"byteOffset":0,"target":34963},{"buffer":0,"byteLength":3348,"byteOffset":996,"target":34962},{"buffer":0,"byteLength":3348,"byteOffset":4344,"target":34962},{"buffer":0,"byteLength":2232,"byteOffset":7692,"target":34962}],"buffers":[{"byteLength":9924,"uri":"SM_Raod_01_B.bin"}],"images":[{"name":"Polygon_Texture_vol2","uri":"../Textures/Polygon_Texture_vol2.png"}],"materials":[{"alphaMode":"OPAQUE","doubleSided":false,"extras":{"fromFBX":{"isTruePBR":false,"shadingModel":"Phong"}},"name":"Material","pbrMetallicRoughness":{"baseColorFactor":[1,1,1,1],"baseColorTexture":{"index":0,"texCoord":0},"metallicFactor":0.400000005960464,"roughnessFactor":0.272165536880493}}],"meshes":[{"name":"SM_Raod_01_B","primitives":[{"attributes":{"NORMAL":2,"POSITION":1,"TEXCOORD_0":3},"indices":0,"material":0,"mode":4}]}],"nodes":[{"mesh":0,"name":"SM_Raod_01_B","rotation":[0,0,0,1],"scale":[1,1,1],"translation":[13.4595527648926,-0.17683291435242,-44.3901023864746]}],"samplers":[{}],"scene":0,"scenes":[{"name":"Root Scene","nodes":[0]}],"textures":[{"name":"base_color_texture","sampler":0,"source":0}]}