{"accessors":[{"bufferView":0,"byteOffset":0,"componentType":5123,"count":621,"type":"SCALAR"},{"bufferView":1,"byteOffset":0,"componentType":5126,"count":365,"max":[4.00102090835571,0.285868406295776,4.00615882873535],"min":[-3.99897909164429,-0.00672723213211,-3.99384045600891],"type":"VEC3"},{"bufferView":2,"byteOffset":0,"componentType":5126,"count":365,"type":"VEC3"},{"bufferView":3,"byteOffset":0,"componentType":5126,"count":365,"type":"VEC2"}],"asset":{"generator":"FBX2glTF v0.13.1","version":"2.0"},"bufferViews":[{"buffer":0,"byteLength":1242,"byteOffset":0,"target":34963},{"buffer":0,"byteLength":4380,"byteOffset":1244,"target":34962},{"buffer":0,"byteLength":4380,"byteOffset":5624,"target":34962},{"buffer":0,"byteLength":2920,"byteOffset":10004,"target":34962}],"buffers":[{"byteLength":12924,"uri":"SM_Raod_02_A.bin"}],"images":[{"name":"Polygon_Texture_vol2","uri":"../Textures/Polygon_Texture_vol2.png"}],"materials":[{"alphaMode":"OPAQUE","doubleSided":false,"extras":{"fromFBX":{"isTruePBR":false,"shadingModel":"Phong"}},"name":"Material","pbrMetallicRoughness":{"baseColorFactor":[1,1,1,1],"baseColorTexture":{"index":0,"texCoord":0},"metallicFactor":0.400000005960464,"roughnessFactor":0.272165536880493}}],"meshes":[{"name":"SM_Raod_02_A","primitives":[{"attributes":{"NORMAL":2,"POSITION":1,"TEXCOORD_0":3},"indices":0,"material":0,"mode":4}]}],"nodes":[{"mesh":0,"name":"SM_Raod_02_A","rotation":[0,0,0,1],"scale":[1,1,1],"translation":[14.3005075454712,-0.04571852460504,-12.47474193573]}],"samplers":[{}],"scene":0,"scenes":[{"name":"Root Scene","nodes":[0]}],"textures":[{"name":"base_color_texture","sampler":0,"source":0}]}