{"accessors":[{"bufferView":0,"byteOffset":0,"componentType":5123,"count":498,"type":"SCALAR"},{"bufferView":1,"byteOffset":0,"componentType":5126,"count":282,"max":[3.9961531162262,0.295073449611664,4.00144672393799],"min":[-4.00384712219238,-0.00698967510834,-3.99855327606201],"type":"VEC3"},{"bufferView":2,"byteOffset":0,"componentType":5126,"count":282,"type":"VEC3"},{"bufferView":3,"byteOffset":0,"componentType":5126,"count":282,"type":"VEC2"}],"asset":{"generator":"FBX2glTF v0.13.1","version":"2.0"},"bufferViews":[{"buffer":0,"byteLength":996,"byteOffset":0,"target":34963},{"buffer":0,"byteLength":3384,"byteOffset":996,"target":34962},{"buffer":0,"byteLength":3384,"byteOffset":4380,"target":34962},{"buffer":0,"byteLength":2256,"byteOffset":7764,"target":34962}],"buffers":[{"byteLength":10020,"uri":"SM_Raod_01_A.bin"}],"images":[{"name":"Polygon_Texture_vol2","uri":"../Textures/Polygon_Texture_vol2.png"}],"materials":[{"alphaMode":"OPAQUE","doubleSided":false,"extras":{"fromFBX":{"isTruePBR":false,"shadingModel":"Phong"}},"name":"Material","pbrMetallicRoughness":{"baseColorFactor":[1,1,1,1],"baseColorTexture":{"index":0,"texCoord":0},"metallicFactor":0.400000005960464,"roughnessFactor":0.272165536880493}}],"meshes":[{"name":"SM_Raod_01_A","primitives":[{"attributes":{"NORMAL":2,"POSITION":1,"TEXCOORD_0":3},"indices":0,"material":0,"mode":4}]}],"nodes":[{"mesh":0,"name":"SM_Raod_01_A","rotation":[0,0,0,1],"scale":[1,1,1],"translation":[14.3072624206543,-0.04545608907938,-3.80499958992004]}],"samplers":[{}],"scene":0,"scenes":[{"name":"Root Scene","nodes":[0]}],"textures":[{"name":"base_color_texture","sampler":0,"source":0}]}