{"accessors":[{"bufferView":0,"byteOffset":0,"componentType":5123,"count":378,"type":"SCALAR"},{"bufferView":1,"byteOffset":0,"componentType":5126,"count":226,"max":[4.00018739700317,0.275075048208237,3.99985289573669],"min":[-3.99981212615967,-0.00397686753422,-4.00014781951904],"type":"VEC3"},{"bufferView":2,"byteOffset":0,"componentType":5126,"count":226,"type":"VEC3"},{"bufferView":3,"byteOffset":0,"componentType":5126,"count":226,"type":"VEC2"}],"asset":{"generator":"FBX2glTF v0.13.1","version":"2.0"},"bufferViews":[{"buffer":0,"byteLength":756,"byteOffset":0,"target":34963},{"buffer":0,"byteLength":2712,"byteOffset":756,"target":34962},{"buffer":0,"byteLength":2712,"byteOffset":3468,"target":34962},{"buffer":0,"byteLength":1808,"byteOffset":6180,"target":34962}],"buffers":[{"byteLength":7988,"uri":"SM_Raod_03_B.bin"}],"images":[{"name":"Polygon_Texture_vol2","uri":"../Textures/Polygon_Texture_vol2.png"}],"materials":[{"alphaMode":"OPAQUE","doubleSided":false,"extras":{"fromFBX":{"isTruePBR":false,"shadingModel":"Phong"}},"name":"Material","pbrMetallicRoughness":{"baseColorFactor":[1,1,1,1],"baseColorTexture":{"index":0,"texCoord":0},"metallicFactor":0.400000005960464,"roughnessFactor":0.272165536880493}}],"meshes":[{"name":"SM_Raod_03_B","primitives":[{"attributes":{"NORMAL":2,"POSITION":1,"TEXCOORD_0":3},"indices":0,"material":0,"mode":4}]}],"nodes":[{"mesh":0,"name":"SM_Raod_03_B","rotation":[0,0,0,1],"scale":[1,1,1],"translation":[14.3039484024048,-0.05324114114046,-62.8833427429199]}],"samplers":[{}],"scene":0,"scenes":[{"name":"Root Scene","nodes":[0]}],"textures":[{"name":"base_color_texture","sampler":0,"source":0}]}