{"accessors":[{"bufferView":0,"byteOffset":0,"componentType":5123,"count":180,"type":"SCALAR"},{"bufferView":1,"byteOffset":0,"componentType":5126,"count":180,"max":[0.868754148483276,1.29169631004333,0.721240818500519],"min":[-0.7567041516304,-0.09679199755192,-0.81896662712097],"type":"VEC3"},{"bufferView":2,"byteOffset":0,"componentType":5126,"count":180,"type":"VEC3"},{"bufferView":3,"byteOffset":0,"componentType":5126,"count":180,"type":"VEC2"}],"asset":{"generator":"FBX2glTF v0.13.1","version":"2.0"},"bufferViews":[{"buffer":0,"byteLength":360,"byteOffset":0,"target":34963},{"buffer":0,"byteLength":2160,"byteOffset":360,"target":34962},{"buffer":0,"byteLength":2160,"byteOffset":2520,"target":34962},{"buffer":0,"byteLength":1440,"byteOffset":4680,"target":34962}],"buffers":[{"byteLength":6120,"uri":"SM_Stone_01_B.bin"}],"images":[{"name":"Polygon_Texture_vol2","uri":"../Textures/Polygon_Texture_vol2.png"}],"materials":[{"alphaMode":"OPAQUE","doubleSided":false,"extras":{"fromFBX":{"isTruePBR":false,"shadingModel":"Phong"}},"name":"Material","pbrMetallicRoughness":{"baseColorFactor":[1,1,1,1],"baseColorTexture":{"index":0,"texCoord":0},"metallicFactor":0.400000005960464,"roughnessFactor":0.272165536880493}}],"meshes":[{"name":"SM_Stone_01_B","primitives":[{"attributes":{"NORMAL":2,"POSITION":1,"TEXCOORD_0":3},"indices":0,"material":0,"mode":4}]}],"nodes":[{"mesh":0,"name":"SM_Stone_01_B","rotation":[0,0,0,1],"scale":[1,1,1],"translation":[89.7098236083984,-0.00692015886307,-51.0066337585449]}],"samplers":[{}],"scene":0,"scenes":[{"name":"Root Scene","nodes":[0]}],"textures":[{"name":"base_color_texture","sampler":0,"source":0}]}