{"accessors":[{"bufferView":0,"byteOffset":0,"componentType":5123,"count":480,"type":"SCALAR"},{"bufferView":1,"byteOffset":0,"componentType":5126,"count":478,"max":[3.11616444587708,5.53155136108398,2.25838923454285],"min":[-2.74165987968445,-0.17124590277672,-5.26207208633423],"type":"VEC3"},{"bufferView":2,"byteOffset":0,"componentType":5126,"count":478,"type":"VEC3"},{"bufferView":3,"byteOffset":0,"componentType":5126,"count":478,"type":"VEC2"}],"asset":{"generator":"FBX2glTF v0.13.1","version":"2.0"},"bufferViews":[{"buffer":0,"byteLength":960,"byteOffset":0,"target":34963},{"buffer":0,"byteLength":5736,"byteOffset":960,"target":34962},{"buffer":0,"byteLength":5736,"byteOffset":6696,"target":34962},{"buffer":0,"byteLength":3824,"byteOffset":12432,"target":34962}],"buffers":[{"byteLength":16256,"uri":"SM_Stone_04_A.bin"}],"images":[{"name":"Polygon_Texture_vol2","uri":"../Textures/Polygon_Texture_vol2.png"}],"materials":[{"alphaMode":"OPAQUE","doubleSided":false,"extras":{"fromFBX":{"isTruePBR":false,"shadingModel":"Phong"}},"name":"Material","pbrMetallicRoughness":{"baseColorFactor":[1,1,1,1],"baseColorTexture":{"index":0,"texCoord":0},"metallicFactor":0.400000005960464,"roughnessFactor":0.272165536880493}}],"meshes":[{"name":"SM_Stone_04_A","primitives":[{"attributes":{"NORMAL":2,"POSITION":1,"TEXCOORD_0":3},"indices":0,"material":0,"mode":4}]}],"nodes":[{"mesh":0,"name":"SM_Stone_04_A","rotation":[0,0,0,1],"scale":[1,1,1],"translation":[79.8660049438477,0.11313920468092,0.0000000554305046307491]}],"samplers":[{}],"scene":0,"scenes":[{"name":"Root Scene","nodes":[0]}],"textures":[{"name":"base_color_texture","sampler":0,"source":0}]}