{"accessors":[{"bufferView":0,"byteOffset":0,"componentType":5123,"count":252,"type":"SCALAR"},{"bufferView":1,"byteOffset":0,"componentType":5126,"count":252,"max":[1.26296842098236,1.29690682888031,1.02519762516022],"min":[-1.27687191963196,-0.30759024620056,-1.71022117137909],"type":"VEC3"},{"bufferView":2,"byteOffset":0,"componentType":5126,"count":252,"type":"VEC3"},{"bufferView":3,"byteOffset":0,"componentType":5126,"count":252,"type":"VEC2"}],"asset":{"generator":"FBX2glTF v0.13.1","version":"2.0"},"bufferViews":[{"buffer":0,"byteLength":504,"byteOffset":0,"target":34963},{"buffer":0,"byteLength":3024,"byteOffset":504,"target":34962},{"buffer":0,"byteLength":3024,"byteOffset":3528,"target":34962},{"buffer":0,"byteLength":2016,"byteOffset":6552,"target":34962}],"buffers":[{"byteLength":8568,"uri":"SM_Stone_03_B.bin"}],"images":[{"name":"Polygon_Texture_vol2","uri":"../Textures/Polygon_Texture_vol2.png"}],"materials":[{"alphaMode":"OPAQUE","doubleSided":false,"extras":{"fromFBX":{"isTruePBR":false,"shadingModel":"Phong"}},"name":"Material","pbrMetallicRoughness":{"baseColorFactor":[1,1,1,1],"baseColorTexture":{"index":0,"texCoord":0},"metallicFactor":0.400000005960464,"roughnessFactor":0.272165536880493}}],"meshes":[{"name":"SM_Stone_03_B","primitives":[{"attributes":{"NORMAL":2,"POSITION":1,"TEXCOORD_0":3},"indices":0,"material":0,"mode":4}]}],"nodes":[{"mesh":0,"name":"SM_Stone_03_B","rotation":[0,0,0,1],"scale":[1,1,1],"translation":[83.9788360595703,0.0694775581359863,-50.2217292785645]}],"samplers":[{}],"scene":0,"scenes":[{"name":"Root Scene","nodes":[0]}],"textures":[{"name":"base_color_texture","sampler":0,"source":0}]}