{"accessors":[{"bufferView":0,"byteOffset":0,"componentType":5123,"count":150,"type":"SCALAR"},{"bufferView":1,"byteOffset":0,"componentType":5126,"count":150,"max":[1.51507532596588,1.80299234390259,1.83536756038666],"min":[-1.52832651138306,-0.1114679723978,-1.26132881641388],"type":"VEC3"},{"bufferView":2,"byteOffset":0,"componentType":5126,"count":150,"type":"VEC3"},{"bufferView":3,"byteOffset":0,"componentType":5126,"count":150,"type":"VEC2"}],"asset":{"generator":"FBX2glTF v0.13.1","version":"2.0"},"bufferViews":[{"buffer":0,"byteLength":300,"byteOffset":0,"target":34963},{"buffer":0,"byteLength":1800,"byteOffset":300,"target":34962},{"buffer":0,"byteLength":1800,"byteOffset":2100,"target":34962},{"buffer":0,"byteLength":1200,"byteOffset":3900,"target":34962}],"buffers":[{"byteLength":5100,"uri":"SM_Stone_02_B.bin"}],"images":[{"name":"Polygon_Texture_vol2","uri":"../Textures/Polygon_Texture_vol2.png"}],"materials":[{"alphaMode":"OPAQUE","doubleSided":false,"extras":{"fromFBX":{"isTruePBR":false,"shadingModel":"Phong"}},"name":"Material","pbrMetallicRoughness":{"baseColorFactor":[1,1,1,1],"baseColorTexture":{"index":0,"texCoord":0},"metallicFactor":0.400000005960464,"roughnessFactor":0.272165536880493}}],"meshes":[{"name":"SM_Stone_02_B","primitives":[{"attributes":{"NORMAL":2,"POSITION":1,"TEXCOORD_0":3},"indices":0,"material":0,"mode":4}]}],"nodes":[{"mesh":0,"name":"SM_Stone_02_B","rotation":[0,0,0,1],"scale":[1,1,1],"translation":[87.110954284668,0.079277329146862,-51.081428527832]}],"samplers":[{}],"scene":0,"scenes":[{"name":"Root Scene","nodes":[0]}],"textures":[{"name":"base_color_texture","sampler":0,"source":0}]}