{"accessors":[{"bufferView":0,"byteOffset":0,"componentType":5123,"count":3456,"type":"SCALAR"},{"bufferView":1,"byteOffset":0,"componentType":5126,"count":2140,"max":[0.202162623405457,0.193355903029442,3.03729724884033],"min":[-0.20223714411259,-2.45511889457703,-0.00058002135484],"type":"VEC3"},{"bufferView":2,"byteOffset":0,"componentType":5126,"count":2140,"type":"VEC3"},{"bufferView":3,"byteOffset":0,"componentType":5126,"count":2140,"type":"VEC2"}],"asset":{"generator":"FBX2glTF v0.13.1","version":"2.0"},"bufferViews":[{"buffer":0,"byteLength":6912,"byteOffset":0,"target":34963},{"buffer":0,"byteLength":25680,"byteOffset":6912,"target":34962},{"buffer":0,"byteLength":25680,"byteOffset":32592,"target":34962},{"buffer":0,"byteLength":17120,"byteOffset":58272,"target":34962}],"buffers":[{"byteLength":75392,"uri":"SM_Signboard_01_B.bin"}],"images":[{"name":"Polygon_Texture_vol2","uri":"../Textures/Polygon_Texture_vol2.png"}],"materials":[{"alphaMode":"OPAQUE","doubleSided":false,"extras":{"fromFBX":{"isTruePBR":false,"shadingModel":"Phong"}},"name":"Material","pbrMetallicRoughness":{"baseColorFactor":[1,1,1,1],"baseColorTexture":{"index":0,"texCoord":0},"metallicFactor":0.400000005960464,"roughnessFactor":0.272165536880493}}],"meshes":[{"name":"SM_Signboard_01_B","primitives":[{"attributes":{"NORMAL":2,"POSITION":1,"TEXCOORD_0":3},"indices":0,"material":0,"mode":4}]}],"nodes":[{"mesh":0,"name":"SM_Signboard_01_B","rotation":[0,0,0,1],"scale":[1,1,1],"translation":[130.611053466797,2.51027178764343,-49.5183258056641]}],"samplers":[{}],"scene":0,"scenes":[{"name":"Root Scene","nodes":[0]}],"textures":[{"name":"base_color_texture","sampler":0,"source":0}]}