{"accessors":[{"bufferView":0,"byteOffset":0,"componentType":5123,"count":876,"type":"SCALAR"},{"bufferView":1,"byteOffset":0,"componentType":5126,"count":544,"max":[3.99999928474426,0.159029841423035,4],"min":[-4.00000143051147,0,-4],"type":"VEC3"},{"bufferView":2,"byteOffset":0,"componentType":5126,"count":544,"type":"VEC3"},{"bufferView":3,"byteOffset":0,"componentType":5126,"count":544,"type":"VEC2"}],"asset":{"generator":"FBX2glTF v0.13.1","version":"2.0"},"bufferViews":[{"buffer":0,"byteLength":1752,"byteOffset":0,"target":34963},{"buffer":0,"byteLength":6528,"byteOffset":1752,"target":34962},{"buffer":0,"byteLength":6528,"byteOffset":8280,"target":34962},{"buffer":0,"byteLength":4352,"byteOffset":14808,"target":34962}],"buffers":[{"byteLength":19160,"uri":"SM_Territory_02_B.bin"}],"images":[{"name":"Polygon_Texture_vol2","uri":"../Textures/Polygon_Texture_vol2.png"}],"materials":[{"alphaMode":"OPAQUE","doubleSided":false,"extras":{"fromFBX":{"isTruePBR":false,"shadingModel":"Phong"}},"name":"Material","pbrMetallicRoughness":{"baseColorFactor":[1,1,1,1],"baseColorTexture":{"index":0,"texCoord":0},"metallicFactor":0.400000005960464,"roughnessFactor":0.272165536880493}}],"meshes":[{"name":"SM_Territory_02_B","primitives":[{"attributes":{"NORMAL":2,"POSITION":1,"TEXCOORD_0":3},"indices":0,"material":0,"mode":4}]}],"nodes":[{"mesh":0,"name":"SM_Territory_02_B","rotation":[0,0,0,1],"scale":[1,1,1],"translation":[103.167526245117,-0.03754801675677,-72.5036773681641]}],"samplers":[{}],"scene":0,"scenes":[{"name":"Root Scene","nodes":[0]}],"textures":[{"name":"base_color_texture","sampler":0,"source":0}]}