{"accessors":[{"bufferView":0,"byteOffset":0,"componentType":5123,"count":3204,"type":"SCALAR"},{"bufferView":1,"byteOffset":0,"componentType":5126,"count":3182,"max":[5.92872905731201,25.7089920043945,5.92675638198853],"min":[-4.81046962738037,-0.00150242447853,-4.7577657699585],"type":"VEC3"},{"bufferView":2,"byteOffset":0,"componentType":5126,"count":3182,"type":"VEC3"},{"bufferView":3,"byteOffset":0,"componentType":5126,"count":3182,"type":"VEC2"}],"asset":{"generator":"FBX2glTF v0.13.1","version":"2.0"},"bufferViews":[{"buffer":0,"byteLength":6408,"byteOffset":0,"target":34963},{"buffer":0,"byteLength":38184,"byteOffset":6408,"target":34962},{"buffer":0,"byteLength":38184,"byteOffset":44592,"target":34962},{"buffer":0,"byteLength":25456,"byteOffset":82776,"target":34962}],"buffers":[{"byteLength":108232,"uri":"SM_Tree_03_A.bin"}],"images":[{"name":"Polygon_Texture_vol2","uri":"../Textures/Polygon_Texture_vol2.png"}],"materials":[{"alphaMode":"OPAQUE","doubleSided":false,"extras":{"fromFBX":{"isTruePBR":false,"shadingModel":"Phong"}},"name":"Material","pbrMetallicRoughness":{"baseColorFactor":[1,1,1,1],"baseColorTexture":{"index":0,"texCoord":0},"metallicFactor":0.400000005960464,"roughnessFactor":0.272165536880493}}],"meshes":[{"name":"SM_Tree_03_A","primitives":[{"attributes":{"NORMAL":2,"POSITION":1,"TEXCOORD_0":3},"indices":0,"material":0,"mode":4}]}],"nodes":[{"mesh":0,"name":"SM_Tree_03_A","rotation":[0,0,0,1],"scale":[1,1,1],"translation":[59.3236198425293,0.0153975486755371,0.00848992913961411]}],"samplers":[{}],"scene":0,"scenes":[{"name":"Root Scene","nodes":[0]}],"textures":[{"name":"base_color_texture","sampler":0,"source":0}]}