{"accessors":[{"bufferView":0,"byteOffset":0,"componentType":5123,"count":1644,"type":"SCALAR"},{"bufferView":1,"byteOffset":0,"componentType":5126,"count":1040,"max":[0.0919858813285828,0.408673822879791,0.143508210778236],"min":[-0.09198588132858,-0.10164272040129,0.00000000459408600050892],"type":"VEC3"},{"bufferView":2,"byteOffset":0,"componentType":5126,"count":1040,"type":"VEC3"},{"bufferView":3,"byteOffset":0,"componentType":5126,"count":1040,"type":"VEC2"}],"asset":{"generator":"FBX2glTF v0.13.1","version":"2.0"},"bufferViews":[{"buffer":0,"byteLength":3288,"byteOffset":0,"target":34963},{"buffer":0,"byteLength":12480,"byteOffset":3288,"target":34962},{"buffer":0,"byteLength":12480,"byteOffset":15768,"target":34962},{"buffer":0,"byteLength":8320,"byteOffset":28248,"target":34962}],"buffers":[{"byteLength":36568,"uri":"SM_Torch_01_B.bin"}],"images":[{"name":"Polygon_Texture_vol2","uri":"../Textures/Polygon_Texture_vol2.png"}],"materials":[{"alphaMode":"OPAQUE","doubleSided":false,"extras":{"fromFBX":{"isTruePBR":false,"shadingModel":"Phong"}},"name":"Material","pbrMetallicRoughness":{"baseColorFactor":[1,1,1,1],"baseColorTexture":{"index":0,"texCoord":0},"metallicFactor":0.400000005960464,"roughnessFactor":0.272165536880493}}],"meshes":[{"name":"SM_Torch_01_B","primitives":[{"attributes":{"NORMAL":2,"POSITION":1,"TEXCOORD_0":3},"indices":0,"material":0,"mode":4}]}],"nodes":[{"mesh":0,"name":"SM_Torch_01_B","rotation":[0,0,0,1],"scale":[1,1,1],"translation":[131.791107177734,0.101642720401287,-49.1110496520996]}],"samplers":[{}],"scene":0,"scenes":[{"name":"Root Scene","nodes":[0]}],"textures":[{"name":"base_color_texture","sampler":0,"source":0}]}