{
  "accessors": [
    {
      "bufferView": 2,
      "componentType": 5126,
      "count": 16486,
      "max": [
        19.193897247314453,
        35.07464599609375,
        11.913437843322754
      ],
      "min": [
        -18.83403778076172,
        -55.592063903808594,
        -12.36947250366211
      ],
      "type": "VEC3"
    },
    {
      "bufferView": 2,
      "byteOffset": 197832,
      "componentType": 5126,
      "count": 16486,
      "max": [
        0.9996336102485657,
        0.9999895095825195,
        1.0
      ],
      "min": [
        -0.9999761581420898,
        -0.999441385269165,
        -0.9999945163726807
      ],
      "type": "VEC3"
    },
    {
      "bufferView": 1,
      "componentType": 5126,
      "count": 16486,
      "max": [
        0.77517169713974,
        0.9696511030197144
      ],
      "min": [
        0.027436280623078346,
        0.2674310803413391
      ],
      "type": "VEC2"
    },
    {
      "bufferView": 0,
      "componentType": 5125,
      "count": 84954,
      "type": "SCALAR"
    },
    {
      "bufferView": 2,
      "byteOffset": 395664,
      "componentType": 5126,
      "count": 14268,
      "max": [
        20.576662063598633,
        13.310443878173828,
        10.710472106933594
      ],
      "min": [
        -20.576662063598633,
        -10.286199569702148,
        -9.901671409606934
      ],
      "type": "VEC3"
    },
    {
      "bufferView": 2,
      "byteOffset": 566880,
      "componentType": 5126,
      "count": 14268,
      "max": [
        0.9999358057975769,
        0.9983533620834351,
        0.9991428852081299
      ],
      "min": [
        -0.9999365210533142,
        -0.9958846569061279,
        -0.9999897480010986
      ],
      "type": "VEC3"
    },
    {
      "bufferView": 1,
      "byteOffset": 131888,
      "componentType": 5126,
      "count": 14268,
      "max": [
        0.9642536640167236,
        0.36454036831855774
      ],
      "min": [
        0.6518959403038025,
        0.04558180272579193
      ],
      "type": "VEC2"
    },
    {
      "bufferView": 0,
      "byteOffset": 339816,
      "componentType": 5125,
      "count": 71370,
      "type": "SCALAR"
    },
    {
      "bufferView": 2,
      "byteOffset": 738096,
      "componentType": 5126,
      "count": 836,
      "max": [
        32.86478805541992,
        12.230230331420898,
        27.73529052734375
      ],
      "min": [
        -32.86478805541992,
        -19.270071029663086,
        -27.73529052734375
      ],
      "type": "VEC3"
    },
    {
      "bufferView": 2,
      "byteOffset": 748128,
      "componentType": 5126,
      "count": 836,
      "max": [
        1.0,
        1.0,
        1.0
      ],
      "min": [
        -1.0,
        -1.0,
        -1.0
      ],
      "type": "VEC3"
    },
    {
      "bufferView": 1,
      "byteOffset": 246032,
      "componentType": 5126,
      "count": 836,
      "max": [
        0.7383583784103394,
        0.9053288698196411
      ],
      "min": [
        0.05753684043884277,
        0.1447591334581375
      ],
      "type": "VEC2"
    },
    {
      "bufferView": 0,
      "byteOffset": 625296,
      "componentType": 5125,
      "count": 1254,
      "type": "SCALAR"
    },
    {
      "bufferView": 2,
      "byteOffset": 758160,
      "componentType": 5126,
      "count": 96,
      "max": [
        19.029836654663086,
        -0.4337139129638672,
        19.376760482788086
      ],
      "min": [
        -19.029836654663086,
        -11.796518325805664,
        8.326818466186523
      ],
      "type": "VEC3"
    },
    {
      "bufferView": 2,
      "byteOffset": 759312,
      "componentType": 5126,
      "count": 96,
      "max": [
        1.0,
        1.0,
        1.0
      ],
      "min": [
        -1.0,
        -1.0,
        -1.0
      ],
      "type": "VEC3"
    },
    {
      "bufferView": 1,
      "byteOffset": 252720,
      "componentType": 5126,
      "count": 96,
      "max": [
        0.9438490867614746,
        0.9739812612533569
      ],
      "min": [
        0.7982727885246277,
        0.057269055396318436
      ],
      "type": "VEC2"
    },
    {
      "bufferView": 0,
      "byteOffset": 630312,
      "componentType": 5125,
      "count": 132,
      "type": "SCALAR"
    }
  ],
  "asset": {
    "extras": {
      "author": "utkumustdie (https://sketchfab.com/utkumustdie)",
      "license": "CC-BY-4.0 (http://creativecommons.org/licenses/by/4.0/)",
      "source": "https://sketchfab.com/3d-models/statue-2-cbf10d512c194a52ae97360130267b1c",
      "title": "Statue_2"
    },
    "generator": "Sketchfab-16.61.0",
    "version": "2.0"
  },
  "bufferViews": [
    {
      "buffer": 0,
      "byteLength": 630840,
      "name": "floatBufferViews",
      "target": 34963
    },
    {
      "buffer": 0,
      "byteLength": 253488,
      "byteOffset": 630840,
      "byteStride": 8,
      "name": "floatBufferViews",
      "target": 34962
    },
    {
      "buffer": 0,
      "byteLength": 760464,
      "byteOffset": 884328,
      "byteStride": 12,
      "name": "floatBufferViews",
      "target": 34962
    }
  ],
  "buffers": [
    {
      "byteLength": 1644792,
      "uri": "scene.bin"
    }
  ],
  "images": [
    {
      "uri": "textures/statue_baseColor.png"
    },
    {
      "uri": "textures/shoulder_pad_baseColor.png"
    },
    {
      "uri": "textures/statue_holder_baseColor.png"
    },
    {
      "uri": "textures/plaket_baseColor.png"
    }
  ],
  "materials": [
    {
      "doubleSided": true,
      "name": "statue",
      "pbrMetallicRoughness": {
        "baseColorTexture": {
          "index": 0
        },
        "metallicFactor": 0.0
      }
    },
    {
      "doubleSided": true,
      "name": "shoulder_pad",
      "pbrMetallicRoughness": {
        "baseColorTexture": {
          "index": 1
        },
        "metallicFactor": 0.0
      }
    },
    {
      "doubleSided": true,
      "name": "statue_holder",
      "pbrMetallicRoughness": {
        "baseColorTexture": {
          "index": 2
        },
        "metallicFactor": 0.0
      }
    },
    {
      "doubleSided": true,
      "name": "plaket",
      "pbrMetallicRoughness": {
        "baseColorTexture": {
          "index": 3
        },
        "metallicFactor": 0.0,
        "roughnessFactor": 0.5
      }
    }
  ],
  "meshes": [
    {
      "name": "Object_0",
      "primitives": [
        {
          "attributes": {
            "NORMAL": 1,
            "POSITION": 0,
            "TEXCOORD_0": 2
          },
          "indices": 3,
          "material": 0,
          "mode": 4
        }
      ]
    },
    {
      "name": "Object_1",
      "primitives": [
        {
          "attributes": {
            "NORMAL": 5,
            "POSITION": 4,
            "TEXCOORD_0": 6
          },
          "indices": 7,
          "material": 1,
          "mode": 4
        }
      ]
    },
    {
      "name": "Object_2",
      "primitives": [
        {
          "attributes": {
            "NORMAL": 9,
            "POSITION": 8,
            "TEXCOORD_0": 10
          },
          "indices": 11,
          "material": 2,
          "mode": 4
        }
      ]
    },
    {
      "name": "Object_3",
      "primitives": [
        {
          "attributes": {
            "NORMAL": 13,
            "POSITION": 12,
            "TEXCOORD_0": 14
          },
          "indices": 15,
          "material": 3,
          "mode": 4
        }
      ]
    }
  ],
  "nodes": [
    {
      "children": [
        1
      ],
      "matrix": [
        1.0,
        0.0,
        0.0,
        0.0,
        0.0,
        2.220446049250313e-16,
        -1.0,
        0.0,
        0.0,
        1.0,
        2.220446049250313e-16,
        0.0,
        0.0,
        0.0,
        0.0,
        1.0
      ],
      "name": "Sketchfab_model"
    },
    {
      "children": [
        2
      ],
      "name": "root"
    },
    {
      "children": [
        3,
        5,
        7,
        9
      ],
      "matrix": [
        1.0,
        0.0,
        0.0,
        0.0,
        0.0,
        2.220446049250313e-16,
        1.0,
        0.0,
        0.0,
        -1.0,
        2.220446049250313e-16,
        0.0,
        0.0,
        0.0,
        0.0,
        1.0
      ],
      "name": "GLTF_SceneRootNode"
    },
    {
      "children": [
        4
      ],
      "matrix": [
        1.0,
        0.0,
        0.0,
        0.0,
        0.0,
        1.0,
        0.0,
        0.0,
        0.0,
        0.0,
        1.0,
        0.0,
        0.38398805260658264,
        85.04962921142578,
        0.8062998056411743,
        1.0
      ],
      "name": "Statue_0"
    },
    {
      "mesh": 0,
      "name": "Object_4"
    },
    {
      "children": [
        6
      ],
      "matrix": [
        1.0,
        0.0,
        0.0,
        0.0,
        0.0,
        1.0,
        0.0,
        0.0,
        0.0,
        0.0,
        1.0,
        0.0,
        0.4894667863845825,
        101.40128326416016,
        -3.7139430046081543,
        1.0
      ],
      "name": "Shoulder_Pads_1"
    },
    {
      "mesh": 1,
      "name": "Object_6"
    },
    {
      "children": [
        8
      ],
      "matrix": [
        1.0,
        0.0,
        0.0,
        0.0,
        0.0,
        1.0,
        0.0,
        0.0,
        0.0,
        0.0,
        1.0,
        0.0,
        0.0,
        19.56842041015625,
        0.0,
        1.0
      ],
      "name": "Statue_Holder_2"
    },
    {
      "mesh": 2,
      "name": "Object_8"
    },
    {
      "children": [
        10
      ],
      "matrix": [
        1.0,
        0.0,
        0.0,
        0.0,
        0.0,
        1.0,
        0.0,
        0.0,
        0.0,
        0.0,
        1.0,
        0.0,
        0.0,
        19.56842041015625,
        2.0033299922943115,
        1.0
      ],
      "name": "EMBRACE_3"
    },
    {
      "mesh": 3,
      "name": "Object_10"
    }
  ],
  "samplers": [
    {
      "magFilter": 9729,
      "minFilter": 9987,
      "wrapS": 10497,
      "wrapT": 10497
    }
  ],
  "scene": 0,
  "scenes": [
    {
      "name": "Sketchfab_Scene",
      "nodes": [
        0
      ]
    }
  ],
  "textures": [
    {
      "sampler": 0,
      "source": 0
    },
    {
      "sampler": 0,
      "source": 1
    },
    {
      "sampler": 0,
      "source": 2
    },
    {
      "sampler": 0,
      "source": 3
    }
  ]
}
