{
  "accessors": [
    {
      "bufferView": 2,
      "componentType": 5126,
      "count": 314,
      "max": [
        1.3138000965118408,
        0.3624687194824219,
        0.3139072060585022
      ],
      "min": [
        -1.304915428161621,
        -0.3624687194824219,
        -0.3139071464538574
      ],
      "type": "VEC3"
    },
    {
      "bufferView": 2,
      "byteOffset": 3768,
      "componentType": 5126,
      "count": 314,
      "max": [
        0.840010941028595,
        1.0,
        1.0
      ],
      "min": [
        -0.8544340133666992,
        -0.8660255670547485,
        -1.0
      ],
      "type": "VEC3"
    },
    {
      "bufferView": 1,
      "componentType": 5126,
      "count": 314,
      "max": [
        0.8340902328491211,
        0.16174113750457764
      ],
      "min": [
        0.25462284684181213,
        0.15922951698303223
      ],
      "type": "VEC2"
    },
    {
      "bufferView": 0,
      "componentType": 5125,
      "count": 450,
      "type": "SCALAR"
    },
    {
      "bufferView": 2,
      "byteOffset": 7536,
      "componentType": 5126,
      "count": 314,
      "max": [
        1.3138000965118408,
        -0.7844682931900024,
        0.41730862855911255
      ],
      "min": [
        -1.304915428161621,
        -1.7482008934020996,
        -0.417308509349823
      ],
      "type": "VEC3"
    },
    {
      "bufferView": 2,
      "byteOffset": 11304,
      "componentType": 5126,
      "count": 314,
      "max": [
        0.8994554877281189,
        0.8660256266593933,
        1.0
      ],
      "min": [
        -0.9093841910362244,
        -1.0,
        -1.0
      ],
      "type": "VEC3"
    },
    {
      "bufferView": 1,
      "byteOffset": 2512,
      "componentType": 5126,
      "count": 314,
      "max": [
        0.8378653526306152,
        0.6332463026046753
      ],
      "min": [
        0.062096234411001205,
        0.15473902225494385
      ],
      "type": "VEC2"
    },
    {
      "bufferView": 0,
      "byteOffset": 1800,
      "componentType": 5125,
      "count": 450,
      "type": "SCALAR"
    },
    {
      "bufferView": 2,
      "byteOffset": 15072,
      "componentType": 5126,
      "count": 314,
      "max": [
        1.3138000965118408,
        1.5422768592834473,
        0.18424203991889954
      ],
      "min": [
        -1.304915428161621,
        1.1167881488800049,
        -0.18424199521541595
      ],
      "type": "VEC3"
    },
    {
      "bufferView": 2,
      "byteOffset": 18840,
      "componentType": 5126,
      "count": 314,
      "max": [
        0.6725116968154907,
        1.0,
        1.0
      ],
      "min": [
        -0.6944871544837952,
        -1.0,
        -1.0
      ],
      "type": "VEC3"
    },
    {
      "bufferView": 1,
      "byteOffset": 5024,
      "componentType": 5126,
      "count": 314,
      "max": [
        0.8359777927398682,
        0.15024849772453308
      ],
      "min": [
        0.5453002452850342,
        0.14826947450637817
      ],
      "type": "VEC2"
    },
    {
      "bufferView": 0,
      "byteOffset": 3600,
      "componentType": 5125,
      "count": 450,
      "type": "SCALAR"
    }
  ],
  "asset": {
    "extras": {
      "author": "Emma-Lie Kamping (https://sketchfab.com/Ellemieke25)",
      "license": "CC-BY-4.0 (http://creativecommons.org/licenses/by/4.0/)",
      "source": "https://sketchfab.com/3d-models/scrolls-low-poly-084a75fe09be475ea154f74fdfdbe316",
      "title": "Scrolls - Low poly"
    },
    "generator": "Sketchfab-12.65.0",
    "version": "2.0"
  },
  "bufferViews": [
    {
      "buffer": 0,
      "byteLength": 5400,
      "name": "floatBufferViews",
      "target": 34963
    },
    {
      "buffer": 0,
      "byteLength": 7536,
      "byteOffset": 5400,
      "byteStride": 8,
      "name": "floatBufferViews",
      "target": 34962
    },
    {
      "buffer": 0,
      "byteLength": 22608,
      "byteOffset": 12936,
      "byteStride": 12,
      "name": "floatBufferViews",
      "target": 34962
    }
  ],
  "buffers": [
    {
      "byteLength": 35544,
      "uri": "scene.bin"
    }
  ],
  "images": [
    {
      "uri": "textures/Scroll_baseColor.png"
    }
  ],
  "materials": [
    {
      "doubleSided": true,
      "name": "Scroll",
      "pbrMetallicRoughness": {
        "baseColorTexture": {
          "index": 0
        },
        "metallicFactor": 0.0,
        "roughnessFactor": 0.8040408206
      }
    }
  ],
  "meshes": [
    {
      "name": "normolskrol_Scroll_0",
      "primitives": [
        {
          "attributes": {
            "NORMAL": 1,
            "POSITION": 0,
            "TEXCOORD_0": 2
          },
          "indices": 3,
          "material": 0,
          "mode": 4
        }
      ]
    },
    {
      "name": "tolscrol_Scroll_0",
      "primitives": [
        {
          "attributes": {
            "NORMAL": 5,
            "POSITION": 4,
            "TEXCOORD_0": 6
          },
          "indices": 7,
          "material": 0,
          "mode": 4
        }
      ]
    },
    {
      "name": "smolskrol_Scroll_0",
      "primitives": [
        {
          "attributes": {
            "NORMAL": 9,
            "POSITION": 8,
            "TEXCOORD_0": 10
          },
          "indices": 11,
          "material": 0,
          "mode": 4
        }
      ]
    }
  ],
  "nodes": [
    {
      "children": [
        1
      ],
      "matrix": [
        1.0,
        0.0,
        0.0,
        0.0,
        0.0,
        2.220446049250313e-16,
        -1.0,
        0.0,
        0.0,
        1.0,
        2.220446049250313e-16,
        0.0,
        0.0,
        0.0,
        0.0,
        1.0
      ],
      "name": "Sketchfab_model"
    },
    {
      "children": [
        2
      ],
      "matrix": [
        1.0,
        0.0,
        0.0,
        0.0,
        0.0,
        0.0,
        1.0,
        0.0,
        0.0,
        -1.0,
        0.0,
        0.0,
        0.0,
        0.0,
        0.0,
        1.0
      ],
      "name": "5f67018db384443b8a0f1039f6560160.fbx"
    },
    {
      "children": [
        3,
        5,
        7
      ],
      "name": "RootNode"
    },
    {
      "children": [
        4
      ],
      "matrix": [
        100.0,
        0.0,
        0.0,
        0.0,
        0.0,
        -1.629206793918314e-05,
        -99.99999999999868,
        0.0,
        0.0,
        99.99999999999868,
        -1.629206793918314e-05,
        0.0,
        0.0,
        0.0,
        0.0,
        1.0
      ],
      "name": "normolskrol"
    },
    {
      "mesh": 0,
      "name": "normolskrol_Scroll_0"
    },
    {
      "children": [
        6
      ],
      "matrix": [
        100.0,
        0.0,
        0.0,
        0.0,
        0.0,
        -1.629206793918314e-05,
        -99.99999999999868,
        0.0,
        0.0,
        99.99999999999868,
        -1.629206793918314e-05,
        0.0,
        0.0,
        0.0,
        0.0,
        1.0
      ],
      "name": "tolscrol"
    },
    {
      "mesh": 1,
      "name": "tolscrol_Scroll_0"
    },
    {
      "children": [
        8
      ],
      "matrix": [
        100.0,
        0.0,
        0.0,
        0.0,
        0.0,
        -1.629206793918314e-05,
        -99.99999999999868,
        0.0,
        0.0,
        99.99999999999868,
        -1.629206793918314e-05,
        0.0,
        0.0,
        0.0,
        0.0,
        1.0
      ],
      "name": "smolskrol"
    },
    {
      "mesh": 2,
      "name": "smolskrol_Scroll_0"
    }
  ],
  "samplers": [
    {
      "magFilter": 9729,
      "minFilter": 9987,
      "wrapS": 10497,
      "wrapT": 10497
    }
  ],
  "scene": 0,
  "scenes": [
    {
      "name": "Sketchfab_Scene",
      "nodes": [
        0
      ]
    }
  ],
  "textures": [
    {
      "sampler": 0,
      "source": 0
    }
  ]
}
