{
  "accessors": [
    {
      "bufferView": 2,
      "componentType": 5126,
      "count": 6604,
      "max": [
        10163.84375,
        17797.33984375,
        5148.67138671875
      ],
      "min": [
        133.49365234375,
        148.669921875,
        91.27117919921875
      ],
      "type": "VEC3"
    },
    {
      "bufferView": 2,
      "byteOffset": 79248,
      "componentType": 5126,
      "count": 6604,
      "max": [
        1.0,
        1.0,
        1.0
      ],
      "min": [
        -1.0,
        -1.0,
        -1.0
      ],
      "type": "VEC3"
    },
    {
      "bufferView": 1,
      "componentType": 5126,
      "count": 6604,
      "max": [
        0.9810090065002441,
        0.9786339998245239
      ],
      "min": [
        0.022724000737071037,
        0.029543999582529068
      ],
      "type": "VEC2"
    },
    {
      "bufferView": 0,
      "componentType": 5125,
      "count": 9996,
      "type": "SCALAR"
    },
    {
      "bufferView": 2,
      "byteOffset": 158496,
      "componentType": 5126,
      "count": 4677,
      "max": [
        10148.669921875,
        19455.876953125,
        5148.67138671875
      ],
      "min": [
        148.67041015625,
        148.669921875,
        91.27117919921875
      ],
      "type": "VEC3"
    },
    {
      "bufferView": 2,
      "byteOffset": 214620,
      "componentType": 5126,
      "count": 4677,
      "max": [
        1.0,
        1.0,
        1.0
      ],
      "min": [
        -1.0,
        -1.0,
        -1.0
      ],
      "type": "VEC3"
    },
    {
      "bufferView": 1,
      "byteOffset": 52832,
      "componentType": 5126,
      "count": 4677,
      "max": [
        0.9793149828910828,
        0.9728829860687256
      ],
      "min": [
        0.022724000737071037,
        0.20916800200939178
      ],
      "type": "VEC2"
    },
    {
      "bufferView": 0,
      "byteOffset": 39984,
      "componentType": 5125,
      "count": 8220,
      "type": "SCALAR"
    },
    {
      "bufferView": 2,
      "byteOffset": 270744,
      "componentType": 5126,
      "count": 65534,
      "max": [
        10297.3408203125,
        21173.78515625,
        10864.8544921875
      ],
      "min": [
        0.0,
        0.0,
        0.0
      ],
      "type": "VEC3"
    },
    {
      "bufferView": 2,
      "byteOffset": 1057152,
      "componentType": 5126,
      "count": 65534,
      "max": [
        1.0,
        1.0,
        1.0
      ],
      "min": [
        -1.0,
        -1.0,
        -1.0
      ],
      "type": "VEC3"
    },
    {
      "bufferView": 1,
      "byteOffset": 90248,
      "componentType": 5126,
      "count": 65534,
      "max": [
        0.9875140190124512,
        0.9773769974708557
      ],
      "min": [
        0.018276000395417213,
        0.027931999415159225
      ],
      "type": "VEC2"
    },
    {
      "bufferView": 0,
      "byteOffset": 72864,
      "componentType": 5125,
      "count": 93327,
      "type": "SCALAR"
    },
    {
      "bufferView": 2,
      "byteOffset": 1843560,
      "componentType": 5126,
      "count": 18699,
      "max": [
        10207.98046875,
        17718.96875,
        5148.67138671875
      ],
      "min": [
        89.35986328125,
        98.0009765625,
        23.671142578125
      ],
      "type": "VEC3"
    },
    {
      "bufferView": 2,
      "byteOffset": 2067948,
      "componentType": 5126,
      "count": 18699,
      "max": [
        1.0,
        1.0,
        1.0
      ],
      "min": [
        -1.0,
        -1.0,
        -1.0
      ],
      "type": "VEC3"
    },
    {
      "bufferView": 1,
      "byteOffset": 614520,
      "componentType": 5126,
      "count": 18699,
      "max": [
        0.969726026058197,
        0.9752950072288513
      ],
      "min": [
        0.024694999679923058,
        0.027931999415159225
      ],
      "type": "VEC2"
    },
    {
      "bufferView": 0,
      "byteOffset": 446172,
      "componentType": 5125,
      "count": 25608,
      "type": "SCALAR"
    },
    {
      "bufferView": 2,
      "byteOffset": 2292336,
      "componentType": 5126,
      "count": 3478,
      "max": [
        10117.419921875,
        19477.59375,
        5173.39794921875
      ],
      "min": [
        179.92041015625,
        160.0654296875,
        148.67120361328125
      ],
      "type": "VEC3"
    },
    {
      "bufferView": 2,
      "byteOffset": 2334072,
      "componentType": 5126,
      "count": 3478,
      "max": [
        1.0,
        1.0,
        0.9969502091407776
      ],
      "min": [
        -1.0,
        -1.0,
        -0.9625939726829529
      ],
      "type": "VEC3"
    },
    {
      "bufferView": 1,
      "byteOffset": 764112,
      "componentType": 5126,
      "count": 3478,
      "max": [
        0.7830510139465332,
        0.9746540188789368
      ],
      "min": [
        0.015402999706566334,
        0.20916800200939178
      ],
      "type": "VEC2"
    },
    {
      "bufferView": 0,
      "byteOffset": 548604,
      "componentType": 5125,
      "count": 6660,
      "type": "SCALAR"
    }
  ],
  "asset": {
    "extras": {
      "author": "DT7 (https://sketchfab.com/DT7)",
      "license": "CC-BY-4.0 (http://creativecommons.org/licenses/by/4.0/)",
      "source": "https://sketchfab.com/3d-models/hallofthekingone-hand-medievalfantasyscene-943e447e1a3b4b6a98b6c8d7e63bf167",
      "title": "HallOfTheKing\"One Hand\" #MedievalFantasyScene"
    },
    "generator": "Sketchfab-12.66.0",
    "version": "2.0"
  },
  "bufferViews": [
    {
      "buffer": 0,
      "byteLength": 575244,
      "name": "floatBufferViews",
      "target": 34963
    },
    {
      "buffer": 0,
      "byteLength": 791936,
      "byteOffset": 575244,
      "byteStride": 8,
      "name": "floatBufferViews",
      "target": 34962
    },
    {
      "buffer": 0,
      "byteLength": 2375808,
      "byteOffset": 1367180,
      "byteStride": 12,
      "name": "floatBufferViews",
      "target": 34962
    }
  ],
  "buffers": [
    {
      "byteLength": 3742988,
      "uri": "scene.bin"
    }
  ],
  "extensionsRequired": [
    "KHR_materials_pbrSpecularGlossiness"
  ],
  "extensionsUsed": [
    "KHR_materials_pbrSpecularGlossiness"
  ],
  "images": [
    {
      "uri": "textures/Scene_-_Root_diffuse.png"
    },
    {
      "uri": "textures/Scene_-_Root_specularGlossiness.png"
    },
    {
      "uri": "textures/Scene_-_Root_emissive.png"
    }
  ],
  "materials": [
    {
      "alphaMode": "BLEND",
      "emissiveFactor": [
        1.0,
        1.0,
        1.0
      ],
      "emissiveTexture": {
        "index": 2
      },
      "extensions": {
        "KHR_materials_pbrSpecularGlossiness": {
          "diffuseFactor": [
            1.0,
            1.0,
            1.0,
            1.0
          ],
          "diffuseTexture": {
            "index": 0
          },
          "glossinessFactor": 0.0,
          "specularFactor": [
            0.5,
            0.5,
            0.5
          ],
          "specularGlossinessTexture": {
            "index": 1
          }
        }
      },
      "name": "Scene_-_Root"
    }
  ],
  "meshes": [
    {
      "name": "Object_0",
      "primitives": [
        {
          "attributes": {
            "NORMAL": 1,
            "POSITION": 0,
            "TEXCOORD_0": 2
          },
          "indices": 3,
          "material": 0,
          "mode": 4
        }
      ]
    },
    {
      "name": "Object_1",
      "primitives": [
        {
          "attributes": {
            "NORMAL": 5,
            "POSITION": 4,
            "TEXCOORD_0": 6
          },
          "indices": 7,
          "material": 0,
          "mode": 4
        }
      ]
    },
    {
      "name": "Object_2",
      "primitives": [
        {
          "attributes": {
            "NORMAL": 9,
            "POSITION": 8,
            "TEXCOORD_0": 10
          },
          "indices": 11,
          "material": 0,
          "mode": 4
        }
      ]
    },
    {
      "name": "Object_3",
      "primitives": [
        {
          "attributes": {
            "NORMAL": 13,
            "POSITION": 12,
            "TEXCOORD_0": 14
          },
          "indices": 15,
          "material": 0,
          "mode": 4
        }
      ]
    },
    {
      "name": "Object_4",
      "primitives": [
        {
          "attributes": {
            "NORMAL": 17,
            "POSITION": 16,
            "TEXCOORD_0": 18
          },
          "indices": 19,
          "material": 0,
          "mode": 4
        }
      ]
    }
  ],
  "nodes": [
    {
      "children": [
        1
      ],
      "matrix": [
        0.0019108736887574196,
        0.0,
        0.0,
        0.0,
        0.0,
        4.2429919328177847e-19,
        -0.0019108736887574196,
        0.0,
        0.0,
        0.0019108736887574196,
        4.2429919328177847e-19,
        0.0,
        0.0,
        0.0,
        0.0,
        1.0
      ],
      "name": "Sketchfab_model"
    },
    {
      "children": [
        2
      ],
      "matrix": [
        1.0,
        0.0,
        0.0,
        0.0,
        0.0,
        1.0,
        0.0,
        0.0,
        0.0,
        0.0,
        1.0,
        0.0,
        -5148.67041015625,
        -11566.69140625,
        499.99920654296875,
        1.0
      ],
      "name": "skfb_offset"
    },
    {
      "children": [
        3,
        4,
        5,
        6,
        7
      ],
      "name": "Object_2"
    },
    {
      "mesh": 0,
      "name": "Object_3"
    },
    {
      "mesh": 1,
      "name": "Object_4"
    },
    {
      "mesh": 2,
      "name": "Object_5"
    },
    {
      "mesh": 3,
      "name": "Object_6"
    },
    {
      "mesh": 4,
      "name": "Object_7"
    }
  ],
  "samplers": [
    {
      "magFilter": 9729,
      "minFilter": 9987,
      "wrapS": 10497,
      "wrapT": 10497
    }
  ],
  "scene": 0,
  "scenes": [
    {
      "name": "Sketchfab_Scene",
      "nodes": [
        0
      ]
    }
  ],
  "textures": [
    {
      "sampler": 0,
      "source": 0
    },
    {
      "sampler": 0,
      "source": 1
    },
    {
      "sampler": 0,
      "source": 2
    }
  ]
}
