{
  "accessors": [
    {
      "bufferView": 2,
      "componentType": 5126,
      "count": 8,
      "max": [
        0.1707099974155426,
        0.1707099974155426,
        0.3999989926815033
      ],
      "min": [
        0.02928899973630905,
        0.02928899973630905,
        0.3999989926815033
      ],
      "type": "VEC3"
    },
    {
      "bufferView": 2,
      "byteOffset": 96,
      "componentType": 5126,
      "count": 8,
      "max": [
        0.0,
        -0.0,
        1.0
      ],
      "min": [
        0.0,
        -0.0,
        1.0
      ],
      "type": "VEC3"
    },
    {
      "bufferView": 1,
      "componentType": 5126,
      "count": 8,
      "max": [
        0.5070710182189941,
        -0.49292799830436707
      ],
      "min": [
        0.49292799830436707,
        -0.5070710182189941
      ],
      "type": "VEC2"
    },
    {
      "bufferView": 0,
      "componentType": 5125,
      "count": 18,
      "type": "SCALAR"
    },
    {
      "bufferView": 2,
      "byteOffset": 192,
      "componentType": 5126,
      "count": 38,
      "max": [
        3.828619956970215,
        -6.979855060577393,
        0.4391140043735504
      ],
      "min": [
        -3.520624876022339,
        -34.91254806518555,
        0.20634999871253967
      ],
      "type": "VEC3"
    },
    {
      "bufferView": 2,
      "byteOffset": 648,
      "componentType": 5126,
      "count": 38,
      "max": [
        0.12680178880691528,
        0.06310414522886276,
        0.9999997615814209
      ],
      "min": [
        -0.10260087996721268,
        -0.03890185058116913,
        0.991913914680481
      ],
      "type": "VEC3"
    },
    {
      "bufferView": 1,
      "byteOffset": 64,
      "componentType": 5126,
      "count": 38,
      "max": [
        1.853600025177002,
        -0.30657801032066345
      ],
      "min": [
        0.5145890116691589,
        -1.3524210453033447
      ],
      "type": "VEC2"
    },
    {
      "bufferView": 0,
      "byteOffset": 72,
      "componentType": 5125,
      "count": 147,
      "type": "SCALAR"
    },
    {
      "bufferView": 2,
      "byteOffset": 1104,
      "componentType": 5126,
      "count": 50,
      "max": [
        9.838008880615234,
        -20.742834091186523,
        4.350000858306885
      ],
      "min": [
        -9.838006973266602,
        -22.95663833618164,
        1.2449920177459717
      ],
      "type": "VEC3"
    },
    {
      "bufferView": 2,
      "byteOffset": 1704,
      "componentType": 5126,
      "count": 50,
      "max": [
        0.9993870258331299,
        0.2071366161108017,
        0.26833632588386536
      ],
      "min": [
        -0.9993870258331299,
        -0.20672160387039185,
        -0.03501005470752716
      ],
      "type": "VEC3"
    },
    {
      "bufferView": 1,
      "byteOffset": 368,
      "componentType": 5126,
      "count": 50,
      "max": [
        1.9783459901809692,
        0.0
      ],
      "min": [
        0.0,
        -0.4132609963417053
      ],
      "type": "VEC2"
    },
    {
      "bufferView": 0,
      "byteOffset": 660,
      "componentType": 5125,
      "count": 192,
      "type": "SCALAR"
    },
    {
      "bufferView": 2,
      "byteOffset": 2304,
      "componentType": 5126,
      "count": 964,
      "max": [
        9.770108222961426,
        11.588279724121094,
        4.481360912322998
      ],
      "min": [
        -9.251276969909668,
        -33.20932388305664,
        0.3206070065498352
      ],
      "type": "VEC3"
    },
    {
      "bufferView": 2,
      "byteOffset": 13872,
      "componentType": 5126,
      "count": 964,
      "max": [
        1.0,
        1.0,
        1.0
      ],
      "min": [
        -1.0,
        -1.0,
        -1.0
      ],
      "type": "VEC3"
    },
    {
      "bufferView": 1,
      "byteOffset": 768,
      "componentType": 5126,
      "count": 964,
      "max": [
        3.6032259464263916,
        0.0
      ],
      "min": [
        0.0,
        -1.228147029876709
      ],
      "type": "VEC2"
    },
    {
      "bufferView": 0,
      "byteOffset": 1428,
      "componentType": 5125,
      "count": 3720,
      "type": "SCALAR"
    },
    {
      "bufferView": 2,
      "byteOffset": 25440,
      "componentType": 5126,
      "count": 680,
      "max": [
        11.601901054382324,
        -16.927343368530273,
        6.493607044219971
      ],
      "min": [
        -11.463520050048828,
        -23.018573760986328,
        0.13068699836730957
      ],
      "type": "VEC3"
    },
    {
      "bufferView": 2,
      "byteOffset": 33600,
      "componentType": 5126,
      "count": 680,
      "max": [
        1.0,
        1.0,
        1.0
      ],
      "min": [
        -1.0,
        -1.0,
        -1.0
      ],
      "type": "VEC3"
    },
    {
      "bufferView": 1,
      "byteOffset": 8480,
      "componentType": 5126,
      "count": 680,
      "max": [
        1.6515270471572876,
        -0.1818539947271347
      ],
      "min": [
        -0.6515269875526428,
        -0.8181459903717041
      ],
      "type": "VEC2"
    },
    {
      "bufferView": 0,
      "byteOffset": 16308,
      "componentType": 5125,
      "count": 1248,
      "type": "SCALAR"
    },
    {
      "bufferView": 2,
      "byteOffset": 41760,
      "componentType": 5126,
      "count": 9415,
      "max": [
        11.979373931884766,
        11.972326278686523,
        8.319355010986328
      ],
      "min": [
        -11.90463638305664,
        -35.80355453491211,
        0.039292000234127045
      ],
      "type": "VEC3"
    },
    {
      "bufferView": 2,
      "byteOffset": 154740,
      "componentType": 5126,
      "count": 9415,
      "max": [
        1.0,
        1.0,
        1.0
      ],
      "min": [
        -1.0,
        -1.0,
        -1.0
      ],
      "type": "VEC3"
    },
    {
      "bufferView": 1,
      "byteOffset": 13920,
      "componentType": 5126,
      "count": 9415,
      "max": [
        2.87555193901062,
        1.8887929916381836
      ],
      "min": [
        -1.8727229833602905,
        -2.8887929916381836
      ],
      "type": "VEC2"
    },
    {
      "bufferView": 0,
      "byteOffset": 21300,
      "componentType": 5125,
      "count": 26154,
      "type": "SCALAR"
    },
    {
      "bufferView": 2,
      "byteOffset": 267720,
      "componentType": 5126,
      "count": 6054,
      "max": [
        11.979373931884766,
        11.81161880493164,
        7.249999046325684
      ],
      "min": [
        -11.90463638305664,
        -35.80355453491211,
        0.07303600013256073
      ],
      "type": "VEC3"
    },
    {
      "bufferView": 2,
      "byteOffset": 340368,
      "componentType": 5126,
      "count": 6054,
      "max": [
        1.0,
        1.0,
        1.0
      ],
      "min": [
        -1.0,
        -1.0,
        -1.0
      ],
      "type": "VEC3"
    },
    {
      "bufferView": 1,
      "byteOffset": 89240,
      "componentType": 5126,
      "count": 6054,
      "max": [
        2.870414972305298,
        1.8851209878921509
      ],
      "min": [
        -1.8704149723052979,
        -2.8887929916381836
      ],
      "type": "VEC2"
    },
    {
      "bufferView": 0,
      "byteOffset": 125916,
      "componentType": 5125,
      "count": 18288,
      "type": "SCALAR"
    },
    {
      "bufferView": 2,
      "byteOffset": 413016,
      "componentType": 5126,
      "count": 6965,
      "max": [
        11.979373931884766,
        -11.919538497924805,
        0.19245599210262299
      ],
      "min": [
        -11.90463638305664,
        -35.80355453491211,
        0.07303600013256073
      ],
      "type": "VEC3"
    },
    {
      "bufferView": 2,
      "byteOffset": 496596,
      "componentType": 5126,
      "count": 6965,
      "max": [
        0.9558612108230591,
        0.9558612108230591,
        1.0
      ],
      "min": [
        -0.9857630729675293,
        -0.9857630729675293,
        -1.0
      ],
      "type": "VEC3"
    },
    {
      "bufferView": 1,
      "byteOffset": 137672,
      "componentType": 5126,
      "count": 6965,
      "max": [
        2.8887929916381836,
        0.6909199953079224
      ],
      "min": [
        -1.8887929916381836,
        -1.6945929527282715
      ],
      "type": "VEC2"
    },
    {
      "bufferView": 0,
      "byteOffset": 199068,
      "componentType": 5125,
      "count": 20856,
      "type": "SCALAR"
    },
    {
      "bufferView": 2,
      "byteOffset": 580176,
      "componentType": 5126,
      "count": 6991,
      "max": [
        11.979373931884766,
        11.972326278686523,
        0.8383479714393616
      ],
      "min": [
        -11.90463638305664,
        -11.911687850952148,
        0.07303600013256073
      ],
      "type": "VEC3"
    },
    {
      "bufferView": 2,
      "byteOffset": 664068,
      "componentType": 5126,
      "count": 6991,
      "max": [
        0.9558612108230591,
        1.0,
        1.0
      ],
      "min": [
        -0.9857630729675293,
        -0.9857630729675293,
        -1.0
      ],
      "type": "VEC3"
    },
    {
      "bufferView": 1,
      "byteOffset": 193392,
      "componentType": 5126,
      "count": 6991,
      "max": [
        2.8887929916381836,
        0.8936259746551514
      ],
      "min": [
        -1.8887929916381836,
        -2.8403160572052
      ],
      "type": "VEC2"
    },
    {
      "bufferView": 0,
      "byteOffset": 282492,
      "componentType": 5125,
      "count": 20910,
      "type": "SCALAR"
    },
    {
      "bufferView": 2,
      "byteOffset": 747960,
      "componentType": 5126,
      "count": 7488,
      "max": [
        11.506505012512207,
        11.764097213745117,
        7.120503902435303
      ],
      "min": [
        -11.396612167358398,
        -35.44955825805664,
        0.901432991027832
      ],
      "type": "VEC3"
    },
    {
      "bufferView": 2,
      "byteOffset": 837816,
      "componentType": 5126,
      "count": 7488,
      "max": [
        1.0,
        1.0,
        1.0
      ],
      "min": [
        -1.0,
        -1.0,
        -1.0
      ],
      "type": "VEC3"
    },
    {
      "bufferView": 1,
      "byteOffset": 249320,
      "componentType": 5126,
      "count": 7488,
      "max": [
        3.214224100112915,
        -0.16296899318695068
      ],
      "min": [
        0.0010219999821856618,
        -2.4195120334625244
      ],
      "type": "VEC2"
    },
    {
      "bufferView": 0,
      "byteOffset": 366132,
      "componentType": 5125,
      "count": 10296,
      "type": "SCALAR"
    }
  ],
  "asset": {
    "extras": {
      "author": "Karthik Naidu (https://sketchfab.com/Karthik_TS)",
      "license": "CC-BY-4.0 (http://creativecommons.org/licenses/by/4.0/)",
      "source": "https://sketchfab.com/3d-models/game-level-design-dark-stone-dungeon-c27da8ed84824bf3895b085a000082f4",
      "title": "Game level design - Dark Stone Dungeon"
    },
    "generator": "Sketchfab-12.67.0",
    "version": "2.0"
  },
  "bufferViews": [
    {
      "buffer": 0,
      "byteLength": 407316,
      "name": "floatBufferViews",
      "target": 34963
    },
    {
      "buffer": 0,
      "byteLength": 309224,
      "byteOffset": 407316,
      "byteStride": 8,
      "name": "floatBufferViews",
      "target": 34962
    },
    {
      "buffer": 0,
      "byteLength": 927672,
      "byteOffset": 716540,
      "byteStride": 12,
      "name": "floatBufferViews",
      "target": 34962
    }
  ],
  "buffers": [
    {
      "byteLength": 1644212,
      "uri": "scene.bin"
    }
  ],
  "materials": [
    {
      "doubleSided": true,
      "name": "Carpet",
      "pbrMetallicRoughness": {
        "baseColorFactor": [
          0.4235,
          0.1725,
          0.4705,
          1.0
        ],
        "metallicFactor": 0.0
      }
    },
    {
      "doubleSided": true,
      "name": "Cloth_flag",
      "pbrMetallicRoughness": {
        "baseColorFactor": [
          0.4784,
          0.196,
          0.5372,
          1.0
        ],
        "metallicFactor": 0.0,
        "roughnessFactor": 0.8938610725758361
      }
    },
    {
      "doubleSided": true,
      "emissiveFactor": [
        1.0,
        0.3423448460947529,
        1.0
      ],
      "name": "Light_element_emissivw",
      "pbrMetallicRoughness": {
        "baseColorFactor": [
          0.8941,
          0.3647,
          1.0,
          1.0
        ],
        "metallicFactor": 0.0,
        "roughnessFactor": 0.8311816356736643
      }
    },
    {
      "doubleSided": true,
      "name": "Metal",
      "pbrMetallicRoughness": {
        "baseColorFactor": [
          0.3568,
          0.3568,
          0.3568,
          1.0
        ],
        "metallicFactor": 0.0,
        "roughnessFactor": 0.8214018935255831
      }
    },
    {
      "doubleSided": true,
      "name": "Wall_Stones__floor__circle__pillar",
      "pbrMetallicRoughness": {
        "baseColorFactor": [
          0.3411,
          0.3372,
          0.3725,
          1.0
        ],
        "metallicFactor": 0.0,
        "roughnessFactor": 0.9673635920163453
      }
    },
    {
      "doubleSided": true,
      "name": "Wall_stones",
      "pbrMetallicRoughness": {
        "baseColorFactor": [
          0.3607,
          0.3568,
          0.4235,
          1.0
        ],
        "metallicFactor": 0.0,
        "roughnessFactor": 0.9465512055878753
      }
    },
    {
      "doubleSided": true,
      "name": "standard",
      "pbrMetallicRoughness": {
        "baseColorFactor": [
          0.5019,
          0.5019,
          0.5019,
          1.0
        ],
        "metallicFactor": 0.0,
        "roughnessFactor": 0.8938610725758361
      }
    }
  ],
  "meshes": [
    {
      "name": "Object_0",
      "primitives": [
        {
          "attributes": {
            "NORMAL": 1,
            "POSITION": 0,
            "TEXCOORD_0": 2
          },
          "indices": 3,
          "material": 6,
          "mode": 4
        }
      ]
    },
    {
      "name": "Object_1",
      "primitives": [
        {
          "attributes": {
            "NORMAL": 5,
            "POSITION": 4,
            "TEXCOORD_0": 6
          },
          "indices": 7,
          "material": 0,
          "mode": 4
        }
      ]
    },
    {
      "name": "Object_2",
      "primitives": [
        {
          "attributes": {
            "NORMAL": 9,
            "POSITION": 8,
            "TEXCOORD_0": 10
          },
          "indices": 11,
          "material": 1,
          "mode": 4
        }
      ]
    },
    {
      "name": "Object_3",
      "primitives": [
        {
          "attributes": {
            "NORMAL": 13,
            "POSITION": 12,
            "TEXCOORD_0": 14
          },
          "indices": 15,
          "material": 2,
          "mode": 4
        }
      ]
    },
    {
      "name": "Object_4",
      "primitives": [
        {
          "attributes": {
            "NORMAL": 17,
            "POSITION": 16,
            "TEXCOORD_0": 18
          },
          "indices": 19,
          "material": 3,
          "mode": 4
        }
      ]
    },
    {
      "name": "Object_5",
      "primitives": [
        {
          "attributes": {
            "NORMAL": 21,
            "POSITION": 20,
            "TEXCOORD_0": 22
          },
          "indices": 23,
          "material": 4,
          "mode": 4
        }
      ]
    },
    {
      "name": "Object_6",
      "primitives": [
        {
          "attributes": {
            "NORMAL": 25,
            "POSITION": 24,
            "TEXCOORD_0": 26
          },
          "indices": 27,
          "material": 4,
          "mode": 4
        }
      ]
    },
    {
      "name": "Object_7",
      "primitives": [
        {
          "attributes": {
            "NORMAL": 29,
            "POSITION": 28,
            "TEXCOORD_0": 30
          },
          "indices": 31,
          "material": 4,
          "mode": 4
        }
      ]
    },
    {
      "name": "Object_8",
      "primitives": [
        {
          "attributes": {
            "NORMAL": 33,
            "POSITION": 32,
            "TEXCOORD_0": 34
          },
          "indices": 35,
          "material": 4,
          "mode": 4
        }
      ]
    },
    {
      "name": "Object_9",
      "primitives": [
        {
          "attributes": {
            "NORMAL": 37,
            "POSITION": 36,
            "TEXCOORD_0": 38
          },
          "indices": 39,
          "material": 5,
          "mode": 4
        }
      ]
    }
  ],
  "nodes": [
    {
      "children": [
        1
      ],
      "matrix": [
        1.0,
        0.0,
        0.0,
        0.0,
        0.0,
        2.220446049250313e-16,
        -1.0,
        0.0,
        0.0,
        1.0,
        2.220446049250313e-16,
        0.0,
        0.0,
        0.0,
        0.0,
        1.0
      ],
      "name": "Sketchfab_model"
    },
    {
      "children": [
        2,
        3,
        4,
        5,
        6,
        7,
        8,
        9,
        10,
        11
      ],
      "name": "Dark Dungeon.obj.cleaner.materialmerger.gles"
    },
    {
      "mesh": 0,
      "name": "Object_2"
    },
    {
      "mesh": 1,
      "name": "Object_3"
    },
    {
      "mesh": 2,
      "name": "Object_4"
    },
    {
      "mesh": 3,
      "name": "Object_5"
    },
    {
      "mesh": 4,
      "name": "Object_6"
    },
    {
      "mesh": 5,
      "name": "Object_7"
    },
    {
      "mesh": 6,
      "name": "Object_8"
    },
    {
      "mesh": 7,
      "name": "Object_9"
    },
    {
      "mesh": 8,
      "name": "Object_10"
    },
    {
      "mesh": 9,
      "name": "Object_11"
    }
  ],
  "scene": 0,
  "scenes": [
    {
      "name": "Sketchfab_Scene",
      "nodes": [
        0
      ]
    }
  ]
}
